<svg width="333" height="114" viewBox="0 0 333 114" fill="none" xmlns="http://www.w3.org/2000/svg">
<g clip-path="url(#clip0_15_10)">
<path d="M39.6831 50.8836C40.2875 51.2429 40.8258 51.5647 41.3675 51.8831C43.69 53.2471 46.0057 54.6195 48.3384 55.963C48.8767 56.2729 49.1171 56.7037 49.1171 57.2912C49.1221 61.1293 49.1171 64.969 49.1187 68.8071C49.1187 69.3418 48.8361 69.6534 48.3925 69.9088C45.6401 71.4958 42.8927 73.0947 40.1503 74.7022C39.1651 75.2794 38.791 76.1972 38.7978 77.3125C38.8097 78.9864 38.786 80.6619 38.8198 82.3358C38.8503 83.8393 39.3175 85.2118 40.169 86.4548C40.8562 87.4594 41.9329 87.9413 42.9096 88.5543C43.9862 89.2303 45.1271 89.8127 46.1614 90.5466C48.0184 91.8646 48.9918 93.6797 48.9698 96.0176C48.941 99.0469 48.9512 102.076 48.9732 105.105C48.9766 105.638 48.7565 105.938 48.3316 106.183C45.7687 107.654 43.2126 109.134 40.6531 110.611C39.9404 111.021 39.2142 111.411 38.5151 111.843C38.1952 112.041 37.9497 112 37.645 111.821C34.8908 110.198 32.1333 108.583 29.3707 106.973C25.6059 104.782 21.831 102.606 18.0679 100.411C14.7246 98.4594 11.3932 96.491 8.05674 94.5311C7.79944 94.3796 7.5506 94.1957 7.27467 94.0952C6.3047 93.7393 6.08972 93.0378 6.12019 92.0553C6.1879 89.9506 6.12358 87.8409 6.15405 85.7328C6.1642 84.987 6.23192 84.231 6.38257 83.5022C6.52985 82.7938 7.0089 82.2915 7.65893 81.9424C9.41944 80.9974 11.1749 80.0404 12.9184 79.0647C13.9307 78.4977 14.9142 77.883 15.9147 77.2955C16.3006 77.069 16.4801 76.7813 16.4733 76.2943C16.4445 74.3565 16.4631 72.4187 16.4699 70.481C16.5038 61.4511 16.5376 52.4212 16.5799 43.3913C16.5867 42.0478 17.2029 40.895 17.7937 39.7406C19.3714 36.6585 22.0375 34.7735 24.9322 33.1218C28.3093 31.1943 31.6644 29.2276 35.0314 27.2813C38.3645 25.3554 41.7009 23.4347 45.0357 21.5105C45.8771 21.0252 46.7184 20.5382 47.5546 20.0427C48.186 19.6681 48.792 19.6324 49.4522 20.0172C52.6618 21.8971 55.8814 23.7616 59.1045 25.6193C59.6648 25.9429 59.9154 26.3584 59.8984 27.0327C59.8087 30.9269 59.7512 34.8212 59.697 38.7155C59.6919 39.1003 59.5633 39.3183 59.223 39.5141C54.363 42.3169 49.5149 45.1367 44.6599 47.9497C43.1246 48.8385 41.5808 49.7155 40.0437 50.6026C39.9455 50.6622 39.8558 50.7491 39.6831 50.8836ZM36.973 109.471C37.0272 109.272 37.061 109.204 37.061 109.134C37.0627 106.5 37.1084 103.866 37.0407 101.233C37.0018 99.7314 36.3077 98.5565 34.923 97.8226C33.7177 97.1841 32.5785 96.4195 31.3732 95.7844C29.6093 94.8546 28.2213 93.5844 27.4053 91.73C26.7265 90.1873 26.5251 88.5628 26.5369 86.8873C26.5826 80.4933 26.6165 74.0977 26.6266 67.7037C26.6317 64.3952 26.5556 61.0867 26.5539 57.7765C26.5522 54.9379 26.6029 52.0994 26.6351 49.2608C26.6368 49.1314 26.6537 48.9935 26.7028 48.876C27.1565 47.7879 27.5221 46.6471 28.1011 45.6305C29.132 43.8187 30.5133 42.2947 32.3127 41.2032C33.2404 40.6413 34.1782 40.0998 35.116 39.555C38.2358 37.7449 41.3573 35.9382 44.4805 34.1333C48.6075 31.7494 52.7379 29.3706 56.865 26.9867C57.3457 26.7091 57.3389 26.5474 56.8599 26.2664C54.297 24.7594 51.7324 23.2593 49.1746 21.7421C48.7616 21.4969 48.4061 21.4594 47.9795 21.7166C46.891 22.3721 45.7789 22.9885 44.6786 23.6254C39.7762 26.4656 34.8604 29.2803 29.9818 32.158C27.3055 33.7365 24.5005 35.0988 22.0612 37.0774C20.4361 38.3954 19.2918 40.013 18.5757 41.9508C18.3709 42.5042 18.2338 43.1189 18.2304 43.7046C18.2016 48.3311 18.2219 52.9559 18.2101 57.5824C18.2033 60.6474 18.1695 63.7141 18.1475 66.7791C18.1035 73.3246 18.0628 79.8701 18.0171 86.4156C18.0103 87.3147 17.4416 87.657 16.69 87.2228C15.654 86.6251 14.6315 86.0019 13.5871 85.4195C12.3971 84.7554 11.207 84.0896 9.98314 83.4937C9.2874 83.1548 8.67292 83.3932 8.33944 84.0896C8.11768 84.5528 7.92301 85.0824 7.91116 85.5881C7.86376 87.7506 7.879 89.9149 7.90778 92.0791C7.91116 92.3056 8.09737 92.6257 8.29204 92.7415C11.2815 94.5158 14.2845 96.268 17.2892 98.0167C22.9922 101.334 28.6969 104.646 34.4016 107.961C35.2345 108.45 36.0673 108.94 36.973 109.471ZM47.492 58.3656C47.426 58.3418 47.3582 58.318 47.2922 58.2941C46.8572 58.5427 46.4204 58.7879 45.9871 59.0382C44.0929 60.128 42.2325 61.2859 40.2925 62.2871C38.9061 63.0023 37.8075 62.4608 37.4046 61.1122C37.1897 60.3971 37.171 59.607 37.1626 58.8475C37.1338 56.4398 37.144 54.0303 37.1524 51.6209C37.1558 50.9176 37.3386 50.2604 37.9887 49.8824C42.3324 47.3503 46.6828 44.8285 51.0333 42.305C53.1679 41.067 55.3093 39.8376 57.4456 38.6031C57.7418 38.4311 57.9754 38.2625 57.9754 37.8334C57.9771 34.8621 58.0093 31.889 58.0279 28.9176C58.0296 28.7269 57.9907 28.5362 57.9619 28.2604C57.3694 28.606 56.8751 28.9006 56.3757 29.1867C52.9885 31.1364 49.5978 33.0793 46.2139 35.0341C42.5389 37.1574 38.8774 39.3046 35.1956 41.4161C33.3707 42.4633 31.5696 43.5293 30.2729 45.2542C29.0389 46.8957 28.25 48.6785 28.2703 50.8087C28.3144 55.5322 28.2805 60.2557 28.2771 64.9776C28.2754 67.9506 28.2771 70.9237 28.2703 73.8967C28.2585 78.7701 28.2094 83.6435 28.2365 88.5152C28.2483 90.6522 29.071 92.4418 30.95 93.5912C32.4803 94.5277 34.0394 95.4166 35.5984 96.3037C37.7364 97.5229 38.7182 99.3943 38.7386 101.828C38.7589 104.235 38.7792 106.643 38.8012 109.049C38.8029 109.226 38.83 109.405 38.8503 109.638C39.0416 109.574 39.1685 109.551 39.2735 109.492C41.794 108.027 44.3112 106.554 46.8369 105.1C47.15 104.92 47.2702 104.731 47.2702 104.354C47.2618 101.758 47.3142 99.161 47.2888 96.5659C47.2668 94.308 46.5829 92.4214 44.3756 91.335C43.0552 90.6845 41.7602 89.9404 40.5685 89.0788C38.2798 87.4237 37.3048 85.0313 37.2117 82.2574C37.1507 80.4354 37.1981 78.6084 37.1507 76.7847C37.1101 75.2471 37.8143 74.1215 39.0551 73.374C41.6163 71.8296 44.2164 70.3515 46.8166 68.8735C47.3041 68.596 47.5038 68.2639 47.4987 67.7071C47.4801 65.3181 47.4903 62.9274 47.4903 60.5384C47.492 59.8164 47.492 59.091 47.492 58.3656Z" fill="#395299"/>
<path d="M28.0114 2.09024C28.2179 2.17538 28.4142 2.22987 28.5869 2.33033C30.9805 3.7181 33.3707 5.11098 35.7626 6.50216C36.6514 7.0181 37.5367 7.54086 38.4322 8.04488C38.9434 8.33266 39.1567 8.72259 38.9874 9.30665C38.9468 9.44798 38.9366 9.60293 38.9383 9.75278C38.9451 12.3683 38.94 14.9837 38.9705 17.5992C38.9874 18.9836 38.8638 20.3458 37.9446 21.4305C37.3877 22.0878 36.6987 22.682 35.9641 23.1265C33.452 24.6419 30.8891 26.0723 28.355 27.5486C27.9656 27.7768 27.6237 27.7597 27.253 27.5452C25.4739 26.5133 23.6914 25.4865 21.9122 24.458C20.5208 23.6526 19.1394 22.8285 17.7327 22.0486C17.1081 21.7029 16.7814 21.3164 16.7763 20.5178C16.7526 16.7172 16.6544 12.9166 16.5613 9.11764C16.5512 8.70727 16.7306 8.47739 17.0353 8.3003C19.3951 6.92786 21.7565 5.55711 24.123 4.19488C25.2233 3.56145 26.3338 2.94334 27.4426 2.32523C27.6119 2.22817 27.8082 2.17197 28.0114 2.09024ZM19.2918 8.92012C19.4086 9.06145 19.434 9.11594 19.478 9.14148C22.073 10.6604 24.6715 12.1741 27.2665 13.6947C27.6271 13.9059 27.9453 13.8854 28.311 13.6709C30.8061 12.2031 33.3132 10.7557 35.8117 9.29132C35.9878 9.18745 36.1215 9.00866 36.2756 8.86563C36.13 8.73281 36.0013 8.56764 35.8337 8.47058C33.3369 7.00278 30.84 5.53668 28.3262 4.09953C28.1349 3.99055 27.771 4.00928 27.5729 4.12166C25.589 5.2421 23.6219 6.39488 21.6515 7.53916C20.8796 7.98699 20.1111 8.43993 19.2918 8.92012ZM28.7359 25.2396C28.8984 25.2022 28.9796 25.2039 29.0372 25.1681C31.1904 23.8008 33.5282 22.7519 35.5714 21.1819C36.8291 20.2147 37.3505 19.0636 37.3132 17.5192C37.2624 15.3788 37.2912 13.2367 37.2811 11.0946C37.2794 10.9005 37.2455 10.7063 37.2218 10.456C37.0441 10.5378 36.9442 10.5769 36.8511 10.6297C34.3255 12.0822 31.8066 13.5449 29.2708 14.9786C28.8628 15.2102 28.6919 15.4554 28.6952 15.939C28.7189 18.832 28.7071 21.7268 28.7088 24.6215C28.7105 24.8054 28.7257 24.9876 28.7359 25.2396Z" fill="#395299"/>
<path d="M36.973 109.471C36.0674 108.94 35.2345 108.45 34.4 107.964C28.6969 104.649 22.9905 101.337 17.2875 98.0201C14.2828 96.2714 11.2798 94.5192 8.29036 92.7449C8.09569 92.6291 7.90948 92.3107 7.9061 92.0825C7.87732 89.92 7.86378 87.754 7.90948 85.5915C7.91964 85.0875 8.116 84.5579 8.33776 84.093C8.67124 83.3966 9.28741 83.1582 9.98146 83.4971C11.2053 84.093 12.3954 84.7605 13.5854 85.4229C14.6299 86.0053 15.6523 86.6268 16.6883 87.2262C17.4399 87.6604 18.0087 87.3181 18.0154 86.419C18.0611 79.8735 18.1035 73.328 18.1458 66.7825C18.1661 63.7175 18.2 60.6508 18.2084 57.5858C18.2203 52.9593 18.2 48.3328 18.2287 43.7081C18.2321 43.1206 18.3692 42.5059 18.5741 41.9542C19.2901 40.0164 20.4344 38.3971 22.0595 37.0808C24.5005 35.1005 27.3055 33.7399 29.9801 32.1615C34.8587 29.2837 39.7763 26.469 44.6769 23.6288C45.7772 22.992 46.8877 22.3738 47.9778 21.72C48.4061 21.4628 48.7616 21.5003 49.1729 21.7455C51.729 23.2627 54.2953 24.7628 56.8582 26.2698C57.3373 26.5525 57.344 26.7125 56.8633 26.9901C52.7363 29.374 48.6058 31.7528 44.4788 34.1367C41.3556 35.9416 38.2341 37.75 35.1143 39.5584C34.1765 40.1016 33.2387 40.6447 32.311 41.2067C30.5116 42.2981 29.1303 43.8221 28.0994 45.6339C27.5205 46.6505 27.1548 47.7913 26.7011 48.8794C26.6521 48.9969 26.6351 49.1348 26.6334 49.2642C26.6013 52.1028 26.5505 54.9413 26.5522 57.7799C26.5539 61.0884 26.63 64.3969 26.625 67.7071C26.6148 74.1011 26.581 80.4968 26.5353 86.8907C26.5234 88.568 26.7248 90.1907 27.4037 91.7334C28.2196 93.5861 29.6077 94.858 31.3716 95.7878C32.5785 96.4229 33.7178 97.1875 34.9213 97.826C36.306 98.5599 37.0001 99.7365 37.039 101.237C37.1067 103.869 37.061 106.503 37.0593 109.138C37.061 109.204 37.0255 109.272 36.973 109.471Z" fill="#FBCC03"/>
<path d="M47.492 58.3656C47.492 59.091 47.492 59.8164 47.492 60.5418C47.492 62.9308 47.4818 65.3215 47.5004 67.7105C47.5055 68.2673 47.3058 68.5994 46.8182 68.8769C44.2181 70.355 41.618 71.833 39.0568 73.3774C37.8177 74.1249 37.1135 75.2505 37.1524 76.7881C37.1998 78.6118 37.1524 80.4372 37.2133 82.2608C37.3064 85.0347 38.2815 87.4271 40.5701 89.0822C41.7619 89.9438 43.0569 90.6879 44.3772 91.3384C46.5829 92.4248 47.2668 94.3115 47.2905 96.5694C47.3159 99.1644 47.2634 101.761 47.2719 104.358C47.2736 104.734 47.1534 104.923 46.8385 105.104C44.3129 106.558 41.7957 108.033 39.2752 109.495C39.1702 109.557 39.0432 109.577 38.852 109.642C38.8317 109.407 38.8046 109.23 38.8029 109.052C38.7792 106.645 38.7606 104.239 38.7402 101.831C38.7199 99.3977 37.7381 97.5263 35.6001 96.3071C34.0411 95.4183 32.482 94.5294 30.9517 93.5946C29.0744 92.4469 28.25 90.6556 28.2382 88.5186C28.2111 83.6452 28.2602 78.7718 28.272 73.9002C28.2805 70.9271 28.2771 67.954 28.2788 64.981C28.2822 60.2574 28.3143 55.5339 28.272 50.8121C28.2517 48.6819 29.0406 46.9008 30.2746 45.2576C31.5713 43.5327 33.3707 42.4667 35.1972 41.4195C38.879 39.3081 42.5406 37.1608 46.2156 35.0375C49.5995 33.0827 52.9901 31.1398 56.3774 29.1901C56.8768 28.9023 57.3728 28.6094 57.9636 28.2638C57.9923 28.5396 58.0313 28.7303 58.0296 28.9211C58.011 31.8924 57.9788 34.8655 57.9771 37.8368C57.9771 38.2642 57.7435 38.4345 57.4473 38.6065C55.3093 39.841 53.1696 41.0704 51.035 42.3084C46.6845 44.8302 42.334 47.352 37.9903 49.8858C37.3403 50.2638 37.1575 50.9211 37.1541 51.6243C37.1439 54.0337 37.1338 56.4415 37.1643 58.8509C37.1727 59.6087 37.193 60.4005 37.4063 61.1156C37.8092 62.4642 38.9078 63.0057 40.2942 62.2906C42.2342 61.2893 44.0928 60.1314 45.9888 59.0416C46.4221 58.7913 46.8589 58.5461 47.2939 58.2975C47.3582 58.318 47.4243 58.3418 47.492 58.3656Z" fill="white"/>
<path d="M19.2918 8.92012C20.1111 8.43994 20.8813 7.98699 21.6515 7.53916C23.6219 6.39489 25.589 5.2421 27.5729 4.12167C27.771 4.00929 28.1349 3.99055 28.3262 4.09953C30.84 5.53668 33.3369 7.00278 35.8337 8.47059C35.9996 8.56935 36.1283 8.73281 36.2755 8.86563C36.1215 9.00867 35.9878 9.18746 35.8117 9.29133C33.3132 10.7557 30.8061 12.2031 28.311 13.6709C27.9453 13.8871 27.6271 13.9076 27.2665 13.6947C24.6715 12.1741 22.0747 10.6604 19.478 9.14148C19.434 9.11594 19.4069 9.05975 19.2918 8.92012Z" fill="#FBCC03"/>
<path d="M28.7359 25.2396C28.724 24.9893 28.7088 24.8054 28.7088 24.6215C28.7071 21.7268 28.7189 18.8337 28.6952 15.939C28.6919 15.4554 28.8628 15.2085 29.2708 14.9786C31.8066 13.5449 34.3255 12.0805 36.8511 10.6297C36.9425 10.5769 37.0441 10.5395 37.2218 10.456C37.2455 10.7063 37.2794 10.9005 37.2811 11.0946C37.2912 13.2367 37.2641 15.3788 37.3132 17.5192C37.3488 19.0619 36.8274 20.2147 35.5714 21.1819C33.5282 22.7536 31.1904 23.8008 29.0372 25.1681C28.9796 25.2039 28.8984 25.2022 28.7359 25.2396Z" fill="white"/>
</g>
<path d="M67.0762 95V62.7881H73.5801V95H67.0762ZM100.98 95H94.8057V83.0908C94.8057 80.5713 94.6738 78.9453 94.4102 78.2129C94.1465 77.4658 93.7144 76.8872 93.1138 76.4771C92.5278 76.0669 91.8174 75.8618 90.9824 75.8618C89.9131 75.8618 88.9536 76.1548 88.104 76.7407C87.2544 77.3267 86.6685 78.103 86.3462 79.0698C86.0386 80.0366 85.8848 81.8237 85.8848 84.4312V95H79.7104V71.665H85.4453V75.0928C87.4814 72.4561 90.0449 71.1377 93.1357 71.1377C94.498 71.1377 95.7432 71.3867 96.8711 71.8848C97.999 72.3682 98.8486 72.9907 99.4199 73.7524C100.006 74.5142 100.409 75.3784 100.628 76.3452C100.863 77.312 100.98 78.6963 100.98 80.498V95ZM128.666 95H122.931V91.5723C121.979 92.9053 120.851 93.9014 119.547 94.5605C118.258 95.2051 116.954 95.5273 115.636 95.5273C112.955 95.5273 110.655 94.4507 108.736 92.2974C106.832 90.1294 105.88 87.1118 105.88 83.2446C105.88 79.2896 106.81 76.2866 108.67 74.2358C110.531 72.1704 112.882 71.1377 115.724 71.1377C118.331 71.1377 120.587 72.2217 122.491 74.3896V62.7881H128.666V95ZM112.186 82.8271C112.186 85.3174 112.53 87.1191 113.219 88.2324C114.215 89.8438 115.606 90.6494 117.394 90.6494C118.814 90.6494 120.023 90.0488 121.019 88.8477C122.015 87.6318 122.513 85.8228 122.513 83.4204C122.513 80.7397 122.03 78.8135 121.063 77.6416C120.096 76.4551 118.858 75.8618 117.35 75.8618C115.885 75.8618 114.654 76.4478 113.658 77.6196C112.677 78.7769 112.186 80.5127 112.186 82.8271ZM134.774 68.501V62.7881H140.948V68.501H134.774ZM134.774 95V71.665H140.948V95H134.774ZM160.812 87.5732L166.964 88.606C166.173 90.8618 164.92 92.583 163.207 93.7695C161.507 94.9414 159.376 95.5273 156.812 95.5273C152.755 95.5273 149.752 94.2017 147.804 91.5503C146.266 89.4263 145.497 86.7456 145.497 83.5083C145.497 79.6411 146.507 76.6162 148.529 74.4336C150.55 72.2363 153.106 71.1377 156.197 71.1377C159.669 71.1377 162.408 72.2876 164.415 74.5874C166.422 76.8726 167.381 80.3809 167.293 85.1123H151.825C151.869 86.9434 152.367 88.3716 153.319 89.397C154.271 90.4077 155.458 90.9131 156.878 90.9131C157.845 90.9131 158.658 90.6494 159.317 90.1221C159.977 89.5947 160.475 88.7451 160.812 87.5732ZM161.163 81.333C161.119 79.5459 160.658 78.1909 159.779 77.2681C158.9 76.3306 157.831 75.8618 156.571 75.8618C155.223 75.8618 154.11 76.3525 153.231 77.334C152.352 78.3154 151.92 79.6484 151.935 81.333H161.163ZM169.645 71.665H173.072V69.9072C173.072 67.9443 173.277 66.4795 173.688 65.5127C174.112 64.5459 174.881 63.7622 175.995 63.1616C177.123 62.5464 178.543 62.2388 180.257 62.2388C182.015 62.2388 183.736 62.5024 185.421 63.0298L184.586 67.3364C183.604 67.1021 182.66 66.9849 181.751 66.9849C180.858 66.9849 180.213 67.1973 179.818 67.6221C179.437 68.0322 179.247 68.8306 179.247 70.0171V71.665H183.861V76.521H179.247V95H173.072V76.521H169.645V71.665ZM187.333 95V62.7881H193.507V95H187.333ZM215.216 95V91.5063C214.366 92.7515 213.246 93.7329 211.854 94.4507C210.477 95.1685 209.02 95.5273 207.481 95.5273C205.914 95.5273 204.508 95.1831 203.263 94.4946C202.018 93.8062 201.117 92.8394 200.56 91.5942C200.003 90.3491 199.725 88.6279 199.725 86.4307V71.665H205.899V82.3877C205.899 85.6689 206.009 87.6831 206.229 88.4302C206.463 89.1626 206.881 89.7485 207.481 90.188C208.082 90.6128 208.844 90.8252 209.767 90.8252C210.821 90.8252 211.766 90.5396 212.601 89.9683C213.436 89.3823 214.007 88.6646 214.315 87.8149C214.623 86.9507 214.776 84.8486 214.776 81.5088V71.665H220.951V95H215.216ZM240.88 87.5732L247.032 88.606C246.241 90.8618 244.989 92.583 243.275 93.7695C241.576 94.9414 239.444 95.5273 236.881 95.5273C232.823 95.5273 229.82 94.2017 227.872 91.5503C226.334 89.4263 225.565 86.7456 225.565 83.5083C225.565 79.6411 226.576 76.6162 228.597 74.4336C230.619 72.2363 233.175 71.1377 236.266 71.1377C239.737 71.1377 242.477 72.2876 244.483 74.5874C246.49 76.8726 247.45 80.3809 247.362 85.1123H231.893C231.937 86.9434 232.435 88.3716 233.387 89.397C234.339 90.4077 235.526 90.9131 236.947 90.9131C237.914 90.9131 238.727 90.6494 239.386 90.1221C240.045 89.5947 240.543 88.7451 240.88 87.5732ZM241.231 81.333C241.188 79.5459 240.726 78.1909 239.847 77.2681C238.968 76.3306 237.899 75.8618 236.639 75.8618C235.292 75.8618 234.178 76.3525 233.299 77.334C232.42 78.3154 231.988 79.6484 232.003 81.333H241.231ZM273.641 95H267.467V83.0908C267.467 80.5713 267.335 78.9453 267.071 78.2129C266.808 77.4658 266.375 76.8872 265.775 76.4771C265.189 76.0669 264.479 75.8618 263.644 75.8618C262.574 75.8618 261.615 76.1548 260.765 76.7407C259.916 77.3267 259.33 78.103 259.007 79.0698C258.7 80.0366 258.546 81.8237 258.546 84.4312V95H252.372V71.665H258.106V75.0928C260.143 72.4561 262.706 71.1377 265.797 71.1377C267.159 71.1377 268.404 71.3867 269.532 71.8848C270.66 72.3682 271.51 72.9907 272.081 73.7524C272.667 74.5142 273.07 75.3784 273.29 76.3452C273.524 77.312 273.641 78.6963 273.641 80.498V95ZM300.272 78.5645L294.186 79.6631C293.98 78.4473 293.512 77.5317 292.779 76.9165C292.062 76.3013 291.124 75.9937 289.967 75.9937C288.429 75.9937 287.198 76.5283 286.275 77.5977C285.367 78.6523 284.913 80.4248 284.913 82.915C284.913 85.6836 285.375 87.6392 286.297 88.7817C287.235 89.9243 288.487 90.4956 290.055 90.4956C291.227 90.4956 292.186 90.166 292.933 89.5068C293.68 88.833 294.208 87.6831 294.515 86.0571L300.58 87.0898C299.95 89.873 298.741 91.9751 296.954 93.396C295.167 94.8169 292.772 95.5273 289.769 95.5273C286.356 95.5273 283.631 94.4507 281.595 92.2974C279.574 90.144 278.563 87.1631 278.563 83.3545C278.563 79.502 279.581 76.5063 281.617 74.3677C283.653 72.2144 286.407 71.1377 289.879 71.1377C292.721 71.1377 294.977 71.7529 296.646 72.9834C298.331 74.1992 299.54 76.0596 300.272 78.5645ZM318.487 87.5732L324.64 88.606C323.849 90.8618 322.596 92.583 320.882 93.7695C319.183 94.9414 317.052 95.5273 314.488 95.5273C310.431 95.5273 307.428 94.2017 305.479 91.5503C303.941 89.4263 303.172 86.7456 303.172 83.5083C303.172 79.6411 304.183 76.6162 306.205 74.4336C308.226 72.2363 310.782 71.1377 313.873 71.1377C317.345 71.1377 320.084 72.2876 322.091 74.5874C324.098 76.8726 325.057 80.3809 324.969 85.1123H309.5C309.544 86.9434 310.042 88.3716 310.995 89.397C311.947 90.4077 313.133 90.9131 314.554 90.9131C315.521 90.9131 316.334 90.6494 316.993 90.1221C317.652 89.5947 318.15 88.7451 318.487 87.5732ZM318.839 81.333C318.795 79.5459 318.333 78.1909 317.455 77.2681C316.576 76.3306 315.506 75.8618 314.247 75.8618C312.899 75.8618 311.786 76.3525 310.907 77.334C310.028 78.3154 309.596 79.6484 309.61 81.333H318.839Z" fill="#395299"/>
<defs>
<clipPath id="clip0_15_10">
<rect width="54" height="110" fill="white" transform="translate(6 2)"/>
</clipPath>
</defs>
</svg>
