<svg width="150" height="150" viewBox="0 0 150 150" fill="none" xmlns="http://www.w3.org/2000/svg">
<rect width="150" height="150" fill="white"/>
<mask id="mask0_1_2" style="mask-type:luminance" maskUnits="userSpaceOnUse" x="47" y="20" width="55" height="110">
<path d="M102 20H47V130H102V20Z" fill="white"/>
</mask>
<g mask="url(#mask0_1_2)">
<path d="M81.307 68.8836C81.9225 69.2427 82.4706 69.5647 83.0224 69.883C85.3878 71.2468 87.7466 72.6194 90.1224 73.9629C90.6707 74.2728 90.9155 74.7037 90.9155 75.2911C90.9207 79.1291 90.9155 82.9689 90.9172 86.8071C90.9172 87.3417 90.6292 87.6532 90.1776 87.9086C87.374 89.4958 84.5759 91.0947 81.7827 92.7019C80.7792 93.2793 80.3983 94.1971 80.4052 95.3124C80.4172 96.9863 80.3932 98.6619 80.4276 100.336C80.4587 101.839 80.9344 103.212 81.8018 104.455C82.5017 105.459 83.5983 105.941 84.5931 106.554C85.6897 107.23 86.8517 107.813 87.9051 108.547C89.7965 109.864 90.7879 111.68 90.7655 114.018C90.7363 117.047 90.7467 120.076 90.7691 123.105C90.7724 123.638 90.5483 123.938 90.1156 124.183C87.5052 125.654 84.9018 127.134 82.2949 128.61C81.569 129.021 80.8292 129.411 80.1172 129.843C79.7913 130.041 79.5413 130 79.231 129.821C76.426 128.198 73.6172 126.582 70.8035 124.973C66.9689 122.782 63.1241 120.606 59.2913 118.411C55.8862 116.459 52.493 114.491 49.0949 112.531C48.8329 112.38 48.5794 112.196 48.2982 112.095C47.3103 111.739 47.0915 111.038 47.1224 110.055C47.1915 107.95 47.1259 105.841 47.1568 103.733C47.1672 102.987 47.2363 102.231 47.3896 101.502C47.5396 100.794 48.0275 100.291 48.6897 99.9422C50.4828 98.9973 52.2706 98.0402 54.0467 97.0646C55.0775 96.4977 56.0793 95.8829 57.0983 95.2954C57.4915 95.069 57.6742 94.7813 57.6672 94.2941C57.6379 92.3565 57.6568 90.4186 57.6639 88.4808C57.6983 79.451 57.7327 70.4212 57.7759 61.3912C57.7827 60.0476 58.4103 58.8949 59.0121 57.7405C60.6191 54.6584 63.3344 52.7734 66.2828 51.1216C69.7224 49.1942 73.1397 47.2276 76.5689 45.2812C79.9637 43.3554 83.362 41.4346 86.7587 39.5104C87.6155 39.0251 88.4725 38.5381 89.3241 38.0426C89.9672 37.6681 90.5844 37.6322 91.257 38.0171C94.5259 39.8969 97.8051 41.7614 101.088 43.6193C101.659 43.9429 101.914 44.3582 101.897 45.0327C101.805 48.9267 101.747 52.821 101.691 56.7153C101.686 57.1002 101.555 57.3181 101.209 57.5141C96.2585 60.3167 91.3207 63.1366 86.376 65.9496C84.8122 66.8384 83.2397 67.7153 81.6742 68.6025C81.5742 68.6621 81.4827 68.7489 81.307 68.8836ZM78.5466 127.471C78.6018 127.272 78.6362 127.204 78.6362 127.134C78.6379 124.5 78.6845 121.866 78.6154 119.233C78.5758 117.731 77.869 116.556 76.4585 115.822C75.231 115.184 74.0707 114.42 72.8432 113.784C71.0466 112.855 69.6328 111.584 68.8017 109.73C68.1103 108.187 67.9051 106.563 67.9171 104.887C67.9638 98.4933 67.9983 92.0975 68.0087 85.7036C68.0138 82.3951 67.9362 79.0866 67.9346 75.7762C67.9327 72.9378 67.9846 70.0993 68.0171 67.2608C68.019 67.1313 68.0362 66.9934 68.0862 66.8759C68.5482 65.7878 68.9206 64.6468 69.5104 63.6304C70.5603 61.8187 71.9673 60.2946 73.8 59.2031C74.7447 58.6411 75.7001 58.0997 76.6552 57.5549C79.8328 55.7449 83.0121 53.9382 86.1932 52.1331C90.3965 49.7493 94.6035 47.3705 98.8069 44.9867C99.2965 44.7091 99.2897 44.5473 98.8018 44.2662C96.1913 42.7592 93.5792 41.2591 90.9742 39.742C90.5535 39.4967 90.1913 39.4592 89.7569 39.7165C88.6482 40.3721 87.5155 40.9884 86.3948 41.6254C81.4018 44.4655 76.3948 47.2801 71.4259 50.158C68.7001 51.7364 65.843 53.0986 63.3587 55.0772C61.7034 56.3953 60.5379 58.0129 59.8085 59.9507C59.6 60.504 59.4604 61.1188 59.4569 61.7046C59.4276 66.3309 59.4482 70.9558 59.4361 75.5822C59.4293 78.6473 59.3949 81.714 59.3725 84.7789C59.3277 91.3244 59.2862 97.87 59.2397 104.415C59.2329 105.314 58.6534 105.657 57.8879 105.223C56.8328 104.625 55.7914 104.002 54.7275 103.419C53.5156 102.755 52.3034 102.089 51.057 101.494C50.3483 101.155 49.7224 101.393 49.3828 102.089C49.1569 102.553 48.9586 103.082 48.9466 103.588C48.8982 105.751 48.9138 107.915 48.943 110.079C48.9465 110.305 49.1362 110.626 49.3345 110.741C52.3793 112.516 55.4378 114.268 58.4982 116.017C64.3068 119.334 70.1172 122.646 75.9277 125.961C76.7759 126.45 77.6242 126.94 78.5466 127.471ZM89.2604 76.3656C89.193 76.3418 89.1241 76.3179 89.0569 76.2939C88.6138 76.5427 88.169 76.7877 87.7275 77.0382C85.7982 78.128 83.9035 79.2859 81.9275 80.287C80.5156 81.0023 79.3965 80.4608 78.9862 79.1121C78.7673 78.397 78.7482 77.6068 78.7397 76.8474C78.7103 74.4398 78.7206 72.0303 78.7294 69.6208C78.7327 68.9175 78.919 68.2603 79.5809 67.8822C84.0052 65.3501 88.4362 62.8283 92.8673 60.3049C95.0414 59.0668 97.2224 57.8374 99.3982 56.6031C99.7 56.4309 99.938 56.2625 99.938 55.8333C99.9397 52.8621 99.9724 49.8889 99.9913 46.9174C99.9932 46.7269 99.9536 46.5361 99.9241 46.2602C99.3206 46.6059 98.8173 46.9005 98.3086 47.1865C94.8586 49.1364 91.4051 51.0792 87.9586 53.034C84.2155 55.1574 80.4863 57.3044 76.7361 59.4161C74.8775 60.4632 73.0432 61.5291 71.7223 63.254C70.4656 64.8956 69.6621 66.6783 69.6828 68.8086C69.7276 73.5321 69.6932 78.2555 69.6897 82.9774C69.688 85.9505 69.6897 88.9237 69.6828 91.8966C69.6708 96.7701 69.6208 101.643 69.6484 106.515C69.6604 108.652 70.4983 110.442 72.4121 111.591C73.9707 112.528 75.5586 113.417 77.1464 114.304C79.3241 115.523 80.324 117.394 80.3448 119.827C80.3656 122.235 80.3863 124.643 80.4087 127.049C80.4104 127.226 80.438 127.405 80.4587 127.638C80.6535 127.573 80.7827 127.551 80.8896 127.492C83.4568 126.027 86.0206 124.554 88.593 123.1C88.9121 122.92 89.0345 122.731 89.0345 122.354C89.0258 119.758 89.0793 117.161 89.0534 114.566C89.031 112.308 88.3346 110.421 86.0861 109.335C84.7414 108.684 83.4224 107.94 82.2086 107.079C79.8776 105.424 78.8845 103.031 78.7897 100.257C78.7277 98.4353 78.7758 96.6083 78.7277 94.7846C78.6862 93.247 79.4034 92.1213 80.6672 91.374C83.276 89.8295 85.9241 88.3515 88.5725 86.8733C89.0689 86.5958 89.2725 86.2637 89.2673 85.7069C89.2482 83.3179 89.2586 80.9273 89.2586 78.5383C89.2604 77.8162 89.2604 77.091 89.2604 76.3656Z" fill="#395299"/>
<path d="M69.4192 20.0901C69.6293 20.1752 69.8295 20.2297 70.0052 20.3301C72.4433 21.718 74.8778 23.1108 77.3139 24.502C78.219 25.018 79.1208 25.5406 80.0328 26.0448C80.5535 26.3325 80.7707 26.7224 80.5983 27.3065C80.5571 27.4478 80.5467 27.6027 80.5484 27.7527C80.5552 30.3681 80.55 32.9835 80.5811 35.5991C80.5984 36.9834 80.4724 38.3456 79.5364 39.4304C78.969 40.0877 78.2674 40.682 77.5191 41.1263C74.9605 42.6418 72.3501 44.0721 69.7692 45.5484C69.3725 45.7767 69.0242 45.7597 68.6466 45.5451C66.8347 44.5131 65.019 43.4863 63.2071 42.4578C61.7898 41.6525 60.3828 40.8285 58.9501 40.0486C58.3138 39.7028 57.9811 39.3163 57.9759 38.5178C57.9518 34.7171 57.8518 30.9164 57.757 27.1174C57.7467 26.707 57.9294 26.4773 58.2398 26.3002C60.6432 24.9277 63.0484 23.557 65.4586 22.1949C66.5795 21.5614 67.7103 20.9433 68.8397 20.3252C69.0121 20.228 69.2121 20.1719 69.4192 20.0901ZM60.538 26.92C60.6571 27.0613 60.6828 27.1157 60.7276 27.1414C63.3708 28.6602 66.0173 30.174 68.6605 31.6947C69.0277 31.9057 69.3517 31.8852 69.7244 31.6708C72.2657 30.203 74.819 28.7555 77.3639 27.2912C77.5431 27.1874 77.6794 27.0084 77.8363 26.8655C77.6879 26.7328 77.557 26.5674 77.3863 26.4705C74.8433 25.0027 72.3001 23.5365 69.7397 22.0994C69.5449 21.9904 69.1742 22.0093 68.9725 22.1215C66.9519 23.242 64.9483 24.3947 62.9416 25.539C62.1553 25.9868 61.3726 26.4398 60.538 26.92ZM70.1571 43.2394C70.3224 43.2021 70.4052 43.2038 70.4639 43.1679C72.6569 41.8005 75.0381 40.7518 77.1191 39.1816C78.4002 38.2145 78.9312 37.0634 78.8933 35.5192C78.8414 33.3787 78.8709 31.2364 78.8605 29.0944C78.8586 28.9003 78.8242 28.7062 78.8001 28.456C78.619 28.5376 78.5174 28.5767 78.4225 28.6295C75.8501 30.082 73.2845 31.5447 70.7019 32.9785C70.2863 33.2101 70.1123 33.4554 70.1156 33.9388C70.1396 36.8318 70.1276 39.7266 70.1295 42.6215C70.1312 42.8052 70.1467 42.9875 70.1571 43.2394Z" fill="#395299"/>
<path d="M78.5466 127.471C77.6242 126.94 76.776 126.45 75.926 125.964C70.1172 122.649 64.3051 119.337 58.4966 116.02C55.4362 114.271 52.3777 112.519 49.3328 110.745C49.1345 110.629 48.9449 110.311 48.9414 110.082C48.9121 107.92 48.8984 105.754 48.9449 103.591C48.9553 103.087 49.1553 102.558 49.3812 102.093C49.7208 101.396 50.3483 101.158 51.0551 101.497C52.3017 102.093 53.5139 102.76 54.7259 103.423C55.7897 104.005 56.8311 104.627 57.8862 105.226C58.6517 105.66 59.2312 105.318 59.238 104.419C59.2845 97.8733 59.3276 91.328 59.3708 84.7825C59.3913 81.7174 59.426 78.6506 59.4345 75.5857C59.4465 70.9592 59.426 66.3326 59.4552 61.7079C59.4588 61.1205 59.5984 60.5059 59.8069 59.954C60.5363 58.0162 61.7018 56.397 63.3568 55.0808C65.8432 53.1003 68.7001 51.7398 71.4242 50.1613C76.3932 47.2837 81.4018 44.4691 86.3932 41.6287C87.5139 40.9919 88.6449 40.3738 89.7552 39.7199C90.1915 39.4628 90.5535 39.5003 90.9723 39.7453C93.5759 41.2627 96.1897 42.7628 98.8001 44.2698C99.288 44.5523 99.2949 44.7124 98.8053 44.99C94.6018 47.3738 90.3948 49.7527 86.1913 52.1367C83.0104 53.9415 79.8311 55.7499 76.6535 57.5582C75.6984 58.1013 74.7431 58.6447 73.7983 59.2065C71.9657 60.2981 70.5587 61.8221 69.5088 63.6337C68.919 64.6504 68.5466 65.7911 68.0846 66.8793C68.0346 66.9967 68.0174 67.1347 68.0155 67.2641C67.9827 70.1026 67.931 72.9413 67.9327 75.7798C67.9346 79.0883 68.0122 82.3968 68.007 85.7069C67.9966 92.1011 67.9622 98.4966 67.9155 104.89C67.9035 106.568 68.1086 108.19 68.8001 109.733C69.6312 111.586 71.045 112.858 72.8413 113.788C74.0707 114.423 75.231 115.187 76.4569 115.826C77.8674 116.56 78.5742 117.737 78.6138 119.237C78.6829 121.869 78.6362 124.503 78.6345 127.137C78.6362 127.204 78.6001 127.272 78.5466 127.471Z" fill="#FBCC03"/>
<path d="M89.2604 76.3656C89.2604 77.091 89.2604 77.8162 89.2604 78.5416C89.2604 80.9306 89.2501 83.3215 89.2689 85.7105C89.2741 86.2673 89.0708 86.5993 88.5742 86.8769C85.926 88.3548 83.2776 89.8328 80.6691 91.3773C79.4069 92.1249 78.6897 93.2503 78.7293 94.7879C78.7777 96.6116 78.7293 98.4369 78.7914 100.261C78.8862 103.034 79.8793 105.427 82.2105 107.082C83.4243 107.944 84.7431 108.688 86.088 109.338C88.3346 110.425 89.0312 112.311 89.0553 114.569C89.0812 117.164 89.0277 119.761 89.0362 122.358C89.038 122.734 88.9156 122.923 88.5949 123.104C86.0225 124.558 83.4587 126.032 80.8915 127.495C80.7846 127.556 80.6552 127.577 80.4604 127.641C80.4398 127.407 80.4122 127.229 80.4104 127.052C80.3863 124.644 80.3672 122.239 80.3467 119.831C80.3259 117.398 79.326 115.526 77.1483 114.307C75.5605 113.418 73.9724 112.529 72.4138 111.594C70.5019 110.447 69.6621 108.656 69.65 106.518C69.6224 101.645 69.6724 96.7717 69.6845 91.9001C69.6932 88.927 69.6897 85.9538 69.6915 82.9809C69.6948 78.2572 69.7276 73.5337 69.6845 68.8119C69.6639 66.6818 70.4674 64.9006 71.7242 63.2576C73.0448 61.5325 74.8777 60.4665 76.738 59.4194C80.488 57.308 84.2174 55.1607 87.9605 53.0373C91.407 51.0825 94.8605 49.1397 98.3105 47.1901C98.819 46.9021 99.3241 46.6094 99.926 46.2637C99.9552 46.5394 99.9948 46.7302 99.9932 46.921C99.9743 49.8922 99.9415 52.8654 99.9396 55.8366C99.9396 56.2642 99.7017 56.4345 99.4001 56.6064C97.2224 57.841 95.0433 59.0704 92.8691 60.3082C88.4381 62.83 84.007 65.352 79.5828 67.8855C78.9208 68.2636 78.7345 68.9208 78.731 69.6241C78.7209 72.0336 78.7105 74.4414 78.7414 76.8507C78.7501 77.6084 78.7709 78.4004 78.9881 79.1154C79.3984 80.4641 80.5174 81.0056 81.9294 80.2906C83.9052 79.2892 85.7984 78.1313 87.7294 77.0415C88.1707 76.7913 88.6157 76.546 89.0588 76.2974C89.1241 76.3177 89.1913 76.3418 89.2604 76.3656Z" fill="white"/>
<path d="M60.5379 26.92C61.3723 26.4399 62.1569 25.9868 62.9413 25.539C64.9482 24.3947 66.9516 23.242 68.9724 22.1215C69.1741 22.0093 69.5448 21.9904 69.7396 22.0994C72.3 23.5365 74.843 25.0027 77.3862 26.4705C77.5551 26.5693 77.6862 26.7328 77.8362 26.8655C77.6794 27.0085 77.5431 27.1875 77.3638 27.2912C74.819 28.7555 72.2654 30.203 69.724 31.6709C69.3517 31.8871 69.0276 31.9074 68.6602 31.6947C66.0172 30.174 63.3724 28.6602 60.7275 27.1415C60.6827 27.1158 60.6551 27.0596 60.5379 26.92Z" fill="#FBCC03"/>
<path d="M70.1568 43.2394C70.1448 42.9892 70.1293 42.8052 70.1293 42.6213C70.1276 39.7267 70.1396 36.8337 70.1156 33.9389C70.112 33.4552 70.2861 33.2083 70.7016 32.9786C73.2845 31.5447 75.8501 30.0804 78.4223 28.6296C78.5154 28.5767 78.619 28.5392 78.8001 28.456C78.8242 28.7062 78.8586 28.9003 78.8602 29.0944C78.8706 31.2365 78.843 33.3785 78.893 35.5189C78.9293 37.0618 78.3982 38.2145 77.1189 39.1817C75.0379 40.7535 72.6569 41.8006 70.4639 43.1679C70.4052 43.2038 70.3224 43.2021 70.1568 43.2394Z" fill="white"/>
</g>
</svg>
