<svg width="7028" height="1629" viewBox="0 0 7028 1629" fill="none" xmlns="http://www.w3.org/2000/svg">
<path d="M6864.95 1328.63L7003.79 1351.96C6985.94 1402.92 6957.68 1441.81 6919 1468.61C6880.66 1495.09 6832.56 1508.32 6774.71 1508.32C6683.14 1508.32 6615.38 1478.38 6571.42 1418.48C6536.71 1370.49 6519.35 1309.93 6519.35 1236.8C6519.35 1149.43 6542.16 1081.09 6587.78 1031.78C6633.4 982.145 6691.08 957.325 6760.83 957.325C6839.17 957.325 6900.98 983.303 6946.27 1035.26C6991.56 1086.88 7013.21 1166.14 7011.23 1273.03H6662.15C6663.15 1314.4 6674.38 1346.67 6695.87 1369.83C6717.36 1392.66 6744.13 1404.08 6776.2 1404.08C6798.02 1404.08 6816.36 1398.12 6831.24 1386.21C6846.11 1374.3 6857.35 1355.1 6864.95 1328.63ZM6872.89 1187.65C6871.9 1147.28 6861.48 1116.67 6841.65 1095.82C6821.82 1074.64 6797.68 1064.05 6769.26 1064.05C6738.84 1064.05 6713.72 1075.14 6693.89 1097.31C6674.05 1119.48 6664.3 1149.6 6664.63 1187.65H6872.89Z" stroke="black" stroke-width="32"/>
<path d="M6385.41 1125.11L6248.01 1149.93C6243.38 1122.46 6232.8 1101.78 6216.27 1087.88C6200.07 1073.98 6178.9 1067.03 6152.78 1067.03C6118.06 1067.03 6090.28 1079.11 6069.45 1103.27C6048.95 1127.09 6038.7 1167.14 6038.7 1223.39C6038.7 1285.94 6049.11 1330.12 6069.95 1355.93C6091.11 1381.74 6119.38 1394.65 6154.76 1394.65C6181.22 1394.65 6202.88 1387.2 6219.74 1372.31C6236.61 1357.09 6248.51 1331.11 6255.45 1294.38L6392.35 1317.71C6378.13 1380.59 6350.85 1428.07 6310.51 1460.17C6270.17 1492.27 6216.1 1508.32 6148.32 1508.32C6071.27 1508.32 6009.76 1484 5963.8 1435.35C5918.17 1386.71 5895.35 1319.36 5895.35 1233.32C5895.35 1146.29 5918.33 1078.61 5964.3 1030.3C6010.26 981.648 6072.43 957.325 6150.8 957.325C6214.95 957.325 6265.87 971.224 6303.57 999.022C6341.59 1026.49 6368.87 1068.52 6385.41 1125.11Z" stroke="black" stroke-width="32"/>
<path d="M5768.35 1496.32H5629.01V1227.32C5629.01 1170.41 5626.04 1133.68 5620.09 1117.14C5614.14 1100.26 5604.38 1087.19 5590.83 1077.93C5577.61 1068.67 5561.57 1064.03 5542.73 1064.03C5518.6 1064.03 5496.95 1070.65 5477.77 1083.89C5458.6 1097.12 5445.38 1114.66 5438.1 1136.5C5431.16 1158.33 5427.69 1198.7 5427.69 1257.6V1496.32H5288.35V969.236H5417.77V1046.66C5463.72 987.104 5521.57 957.325 5591.33 957.325C5622.07 957.325 5650.17 962.95 5675.62 974.2C5701.08 985.119 5720.25 999.181 5733.15 1016.39C5746.37 1033.59 5755.46 1053.11 5760.42 1074.95C5765.71 1096.79 5768.35 1128.06 5768.35 1168.76V1496.32Z" stroke="black" stroke-width="32"/>
<path d="M5014.95 1328.63L5153.79 1351.96C5135.94 1402.92 5107.68 1441.81 5069 1468.61C5030.66 1495.09 4982.56 1508.32 4924.71 1508.32C4833.14 1508.32 4765.38 1478.38 4721.41 1418.48C4686.71 1370.49 4669.35 1309.93 4669.35 1236.8C4669.35 1149.43 4692.16 1081.09 4737.78 1031.78C4783.4 982.145 4841.08 957.325 4910.83 957.325C4989.17 957.325 5050.98 983.303 5096.27 1035.26C5141.56 1086.88 5163.21 1166.14 5161.23 1273.03H4812.15C4813.15 1314.4 4824.38 1346.67 4845.87 1369.83C4867.36 1392.66 4894.13 1404.08 4926.2 1404.08C4948.01 1404.08 4966.36 1398.12 4981.24 1386.21C4996.11 1374.3 5007.35 1355.1 5014.95 1328.63ZM5022.89 1187.65C5021.9 1147.28 5011.48 1116.67 4991.65 1095.82C4971.82 1074.64 4947.68 1064.05 4919.26 1064.05C4888.84 1064.05 4863.72 1075.14 4843.89 1097.31C4824.05 1119.48 4814.3 1149.6 4814.63 1187.65H5022.89Z" stroke="black" stroke-width="32"/>
<path d="M4412.93 1496.41V1417.5C4393.76 1445.62 4368.47 1467.79 4337.07 1484.01C4305.99 1500.22 4273.1 1508.32 4238.39 1508.32C4203.02 1508.32 4171.28 1500.55 4143.18 1485C4115.09 1469.45 4094.76 1447.61 4082.19 1419.48C4069.63 1391.36 4063.35 1352.48 4063.35 1302.85V969.325H4202.69V1211.53C4202.69 1285.64 4205.17 1331.14 4210.13 1348.01C4215.42 1364.56 4224.84 1377.79 4238.39 1387.72C4251.94 1397.32 4269.13 1402.11 4289.96 1402.11C4313.76 1402.11 4335.08 1395.66 4353.93 1382.76C4372.77 1369.52 4385.66 1353.31 4392.6 1334.12C4399.54 1314.6 4403.02 1267.11 4403.02 1191.67V969.325H4542.35V1496.41H4412.93Z" stroke="black" stroke-width="32"/>
<path d="M3796.35 1497.32V769.325H3935.35V1497.32H3796.35Z" stroke="black" stroke-width="32"/>
<path d="M3313.35 970.242H3390.92V930.537C3390.92 886.2 3395.56 853.113 3404.84 831.275C3414.45 809.438 3431.85 791.736 3457.05 778.17C3482.57 764.273 3514.72 757.325 3553.51 757.325C3593.28 757.325 3632.23 763.281 3670.35 775.192L3651.46 872.469C3629.25 867.175 3607.87 864.528 3587.32 864.528C3567.1 864.528 3552.51 869.326 3543.56 878.921C3534.94 888.186 3530.63 906.218 3530.63 933.019V970.242H3635.05V1079.93H3530.63V1497.32H3390.92V1079.93H3313.35V970.242Z" stroke="black" stroke-width="32"/>
<path d="M3039.95 1328.63L3178.79 1351.96C3160.94 1402.92 3132.68 1441.81 3094 1468.61C3055.66 1495.09 3007.56 1508.32 2949.71 1508.32C2858.14 1508.32 2790.38 1478.38 2746.41 1418.48C2711.71 1370.49 2694.35 1309.93 2694.35 1236.8C2694.35 1149.43 2717.16 1081.09 2762.78 1031.78C2808.4 982.145 2866.08 957.325 2935.83 957.325C3014.17 957.325 3075.98 983.303 3121.27 1035.26C3166.56 1086.88 3188.21 1166.14 3186.23 1273.03H2837.15C2838.15 1314.4 2849.38 1346.67 2870.87 1369.83C2892.36 1392.66 2919.13 1404.08 2951.2 1404.08C2973.01 1404.08 2991.36 1398.12 3006.24 1386.21C3021.11 1374.3 3032.35 1355.1 3039.95 1328.63ZM3047.89 1187.65C3046.9 1147.28 3036.48 1116.67 3016.65 1095.82C2996.82 1074.64 2972.68 1064.05 2944.26 1064.05C2913.84 1064.05 2888.72 1075.14 2868.89 1097.31C2849.05 1119.48 2839.3 1149.6 2839.63 1187.65H3047.89Z" stroke="black" stroke-width="32"/>
<path d="M2427.35 898.438V769.325H2567.35V898.438H2427.35ZM2427.35 1497.32V969.947H2567.35V1497.32H2427.35Z" stroke="black" stroke-width="32"/>
<path d="M2301.35 1496.42H2171.73V1419.05C2150.21 1449.14 2124.72 1471.62 2095.25 1486.5C2066.12 1501.05 2036.65 1508.32 2006.85 1508.32C1946.26 1508.32 1894.28 1484.02 1850.91 1435.42C1807.87 1386.48 1786.35 1318.37 1786.35 1231.08C1786.35 1141.8 1807.38 1074.02 1849.42 1027.73C1891.47 981.105 1944.61 957.795 2008.84 957.795C2067.77 957.795 2118.76 982.263 2161.8 1031.2V769.325H2301.35V1496.42ZM1928.88 1221.65C1928.88 1277.86 1936.66 1318.53 1952.22 1343.66C1974.74 1380.03 2006.19 1398.22 2046.58 1398.22C2078.7 1398.22 2106.01 1384.66 2128.53 1357.55C2151.04 1330.11 2162.3 1289.27 2162.3 1235.04C2162.3 1174.53 2151.37 1131.05 2129.52 1104.6C2107.67 1077.82 2079.69 1064.43 2045.59 1064.43C2012.48 1064.43 1984.67 1077.65 1962.16 1104.11C1939.97 1130.23 1928.88 1169.41 1928.88 1221.65Z" stroke="black" stroke-width="32"/>
<path d="M1659.35 1496.32H1520.01V1227.32C1520.01 1170.41 1517.04 1133.68 1511.09 1117.14C1505.14 1100.26 1495.38 1087.19 1481.83 1077.93C1468.61 1068.67 1452.57 1064.03 1433.73 1064.03C1409.6 1064.03 1387.95 1070.65 1368.77 1083.89C1349.6 1097.12 1336.38 1114.66 1329.1 1136.5C1322.16 1158.33 1318.69 1198.7 1318.69 1257.6V1496.32H1179.35V969.236H1308.77V1046.66C1354.72 987.104 1412.57 957.325 1482.33 957.325C1513.07 957.325 1541.17 962.95 1566.62 974.2C1592.08 985.119 1611.25 999.181 1624.14 1016.39C1637.37 1033.59 1646.46 1053.11 1651.42 1074.95C1656.71 1096.79 1659.35 1128.06 1659.35 1168.76V1496.32Z" stroke="black" stroke-width="32"/>
<path d="M905.352 1497.32V769.325H1052.35V1497.32H905.352Z" stroke="black" stroke-width="32"/>
<path d="M496.497 723.046C505.436 728.37 513.399 733.139 521.411 737.858C555.765 758.069 590.019 778.407 624.524 798.316C632.486 802.908 636.042 809.292 636.042 817.997C636.117 874.872 636.042 931.772 636.067 988.647C636.067 996.57 631.885 1001.19 625.325 1004.97C584.611 1028.49 543.972 1052.18 503.408 1076C488.835 1084.56 483.301 1098.16 483.402 1114.69C483.577 1139.49 483.226 1164.32 483.727 1189.12C484.178 1211.4 491.089 1231.74 503.683 1250.16C513.849 1265.05 529.775 1272.19 544.222 1281.27C560.147 1291.29 577.024 1299.92 592.323 1310.8C619.791 1330.33 634.189 1357.22 633.863 1391.87C633.438 1436.76 633.588 1481.65 633.914 1526.54C633.964 1534.43 630.709 1538.88 624.424 1542.51C586.514 1564.31 548.704 1586.24 510.845 1608.11C500.303 1614.2 489.561 1619.97 479.22 1626.38C474.487 1629.31 470.857 1628.7 466.35 1626.06C425.611 1602.01 384.821 1578.06 343.957 1554.22C288.269 1521.74 232.431 1489.49 176.769 1456.97C127.316 1428.05 78.0382 1398.88 28.6855 1369.84C24.8795 1367.59 21.1987 1364.87 17.1172 1363.38C2.76964 1358.11 -0.410395 1347.71 0.0403147 1333.15C1.04189 1301.96 0.0904237 1270.7 0.541133 1239.46C0.69137 1228.41 1.69297 1217.21 3.92148 1206.41C6.09991 1195.91 13.186 1188.47 22.8012 1183.29C48.8422 1169.29 74.8081 1155.11 100.599 1140.65C115.572 1132.25 130.12 1123.14 144.919 1114.43C150.627 1111.08 153.282 1106.81 153.182 1099.6C152.756 1070.88 153.031 1042.17 153.131 1013.45C153.632 879.641 154.133 745.831 154.759 612.021C154.859 592.112 163.974 575.03 172.712 557.922C196.049 512.25 235.486 484.318 278.304 459.842C328.257 431.278 377.885 402.134 427.689 373.293C476.991 344.754 526.344 316.292 575.672 287.779C588.116 280.587 600.561 273.371 612.93 266.028C622.27 260.477 631.234 259.947 641 265.649C688.474 293.506 736.099 321.137 783.774 348.666C792.063 353.46 795.768 359.617 795.518 369.609C794.191 427.316 793.34 485.024 792.538 542.732C792.463 548.434 790.56 551.664 785.527 554.566C713.639 596.099 641.926 637.885 570.113 679.57C547.402 692.741 524.566 705.736 501.831 718.882C500.378 719.766 499.051 721.052 496.497 723.046ZM456.409 1591.23C457.21 1588.28 457.711 1587.27 457.711 1586.24C457.736 1547.2 458.412 1508.17 457.411 1469.16C456.835 1446.9 446.569 1429.49 426.086 1418.62C408.258 1409.15 391.407 1397.82 373.579 1388.41C347.487 1374.63 326.955 1355.81 314.886 1328.33C304.845 1305.47 301.866 1281.4 302.041 1256.57C302.717 1161.82 303.218 1067.05 303.368 972.296C303.443 923.269 302.316 874.241 302.291 825.189C302.266 783.125 303.017 741.062 303.493 698.999C303.518 697.081 303.769 695.037 304.495 693.296C311.205 677.172 316.614 660.266 325.177 645.202C340.426 618.355 360.859 595.771 387.475 579.597C401.197 571.27 415.069 563.246 428.941 555.171C475.088 528.349 521.261 501.577 567.459 474.83C628.505 439.504 689.601 404.254 750.647 368.928C757.759 364.815 757.658 362.417 750.572 358.254C712.663 335.923 674.728 313.693 636.893 291.21C630.784 287.577 625.525 287.022 619.215 290.832C603.115 300.546 586.664 309.681 570.389 319.118C497.874 361.206 425.16 402.916 352.996 445.56C313.409 468.951 271.918 489.137 235.837 518.458C211.799 537.988 194.872 561.959 184.28 590.674C181.251 598.875 179.223 607.984 179.172 616.664C178.747 685.222 179.047 753.754 178.872 822.312C178.772 867.731 178.271 913.176 177.946 958.595C177.294 1055.59 176.694 1152.59 176.017 1249.58C175.917 1262.9 167.504 1267.98 156.387 1261.54C141.062 1252.68 125.939 1243.45 110.489 1234.82C92.8866 1224.98 75.2839 1215.11 57.1803 1206.28C46.8891 1201.26 37.7998 1204.79 32.8671 1215.11C29.5869 1221.98 26.7074 1229.82 26.5321 1237.32C25.831 1269.36 26.0563 1301.43 26.482 1333.51C26.5321 1336.86 29.2864 1341.6 32.166 1343.32C76.3856 1369.61 120.806 1395.58 165.251 1421.49C249.608 1470.65 333.991 1519.72 418.374 1568.85C430.694 1576.09 443.013 1583.36 456.409 1591.23ZM612.004 833.919C611.027 833.566 610.026 833.213 609.049 832.859C602.614 836.543 596.154 840.177 589.744 843.886C561.725 860.035 534.207 877.194 505.511 892.03C485.004 902.628 468.753 894.604 462.794 874.62C459.614 864.022 459.339 852.314 459.213 841.06C458.788 805.381 458.938 769.676 459.063 733.972C459.113 723.551 461.818 713.811 471.433 708.209C535.684 670.688 600.035 633.318 664.387 595.923C695.961 577.578 727.636 559.36 759.236 541.066C763.618 538.518 767.073 536.02 767.073 529.661C767.098 485.63 767.574 441.573 767.849 397.542C767.874 394.716 767.299 391.89 766.873 387.802C758.109 392.924 750.798 397.289 743.411 401.528C693.307 430.42 643.153 459.211 593.099 488.178C538.739 519.644 484.578 551.462 430.118 582.751C403.125 598.269 376.483 614.065 357.303 639.626C339.049 663.95 327.381 690.369 327.681 721.936C328.332 791.932 327.832 861.928 327.781 931.898C327.756 975.955 327.781 1020.01 327.681 1064.07C327.506 1136.28 326.78 1208.5 327.181 1280.69C327.356 1312.36 339.525 1338.88 367.319 1355.91C389.954 1369.79 413.016 1382.96 436.077 1396.11C467.702 1414.17 482.225 1441.91 482.525 1477.96C482.826 1513.64 483.126 1549.32 483.452 1584.98C483.477 1587.6 483.877 1590.25 484.178 1593.71C487.007 1592.75 488.885 1592.42 490.438 1591.54C527.721 1569.84 564.955 1548.01 602.314 1526.46C606.946 1523.79 608.724 1520.99 608.724 1515.41C608.599 1476.93 609.375 1438.45 608.999 1399.99C608.674 1366.53 598.558 1338.58 565.906 1322.48C546.376 1312.84 527.221 1301.81 509.593 1289.04C475.739 1264.52 461.317 1229.07 459.94 1187.96C459.038 1160.96 459.739 1133.89 459.038 1106.86C458.437 1084.08 468.854 1067.4 487.208 1056.32C525.092 1033.44 563.553 1011.53 602.013 989.631C609.225 985.518 612.179 980.598 612.104 972.347C611.829 936.945 611.979 901.518 611.979 866.116C612.004 855.418 612.004 844.668 612.004 833.919Z" fill="black"/>
<path d="M323.849 0C326.904 1.26165 329.809 2.0691 332.363 3.55784C367.768 24.1226 403.124 44.7631 438.505 65.3784C451.651 73.024 464.746 80.7705 477.992 88.2394C485.554 92.5038 488.709 98.2821 486.205 106.937C485.604 109.031 485.454 111.327 485.479 113.548C485.579 152.306 485.504 191.063 485.955 229.821C486.205 250.335 484.377 270.522 470.781 286.595C462.543 296.335 452.352 305.141 441.485 311.727C404.326 334.184 366.416 355.38 328.932 377.257C323.173 380.638 318.115 380.386 312.632 377.206C286.315 361.915 259.949 346.7 233.632 331.459C213.05 319.524 192.618 307.311 171.81 295.755C162.57 290.632 157.738 284.905 157.663 273.07C157.312 216.75 155.86 160.431 154.483 104.136C154.332 98.055 156.987 94.6486 161.494 92.0243C196.399 71.6866 231.329 51.3742 266.334 31.1879C282.609 21.8012 299.035 12.6417 315.436 3.48214C317.94 2.04387 320.845 1.21118 323.849 0ZM194.871 101.209C196.599 103.303 196.975 104.111 197.626 104.489C236.011 126.997 274.447 149.429 312.832 171.962C318.165 175.091 322.873 174.788 328.281 171.609C365.189 149.858 402.273 128.41 439.231 106.71C441.835 105.171 443.813 102.521 446.092 100.402C443.938 98.4335 442.035 95.9859 439.557 94.5476C402.623 72.7969 365.69 51.0714 328.507 29.7748C325.677 28.1599 320.294 28.4375 317.364 30.1028C288.018 46.7061 258.922 63.7887 229.776 80.7452C218.358 87.3815 206.99 94.0934 194.871 101.209ZM334.566 343.041C336.97 342.486 338.172 342.511 339.023 341.981C370.873 321.719 405.453 306.176 435.675 282.911C454.28 268.579 461.992 251.521 461.441 228.635C460.69 196.917 461.115 165.174 460.965 133.431C460.94 130.555 460.439 127.678 460.089 123.969C457.46 125.18 455.982 125.761 454.605 126.543C417.246 148.067 379.988 169.742 342.479 190.988C336.444 194.419 333.915 198.053 333.965 205.219C334.316 248.09 334.141 290.986 334.166 333.882C334.191 336.607 334.416 339.307 334.566 343.041Z" fill="black"/>
</svg>
