<svg width="182" height="371" viewBox="0 0 182 371" fill="none" xmlns="http://www.w3.org/2000/svg">
<mask id="mask0_210_61" style="mask-type:luminance" maskUnits="userSpaceOnUse" x="0" y="0" width="182" height="371">
<path d="M182 0H0V371H182V0Z" fill="white"/>
</mask>
<g mask="url(#mask0_210_61)">
<path d="M113.525 164.871C115.561 166.083 117.376 167.168 119.201 168.242C127.029 172.842 134.834 177.471 142.696 182.003C144.51 183.048 145.32 184.501 145.32 186.482C145.338 199.427 145.32 212.378 145.326 225.322C145.326 227.126 144.373 228.177 142.879 229.038C133.602 234.391 124.342 239.783 115.099 245.205C111.779 247.152 110.518 250.247 110.541 254.009C110.581 259.654 110.501 265.305 110.615 270.951C110.718 276.022 112.292 280.651 115.162 284.843C117.478 288.232 121.107 289.857 124.399 291.924C128.028 294.204 131.873 296.168 135.359 298.644C141.618 303.089 144.898 309.211 144.824 317.096C144.727 327.313 144.761 337.53 144.835 347.747C144.847 349.544 144.105 350.555 142.673 351.382C134.035 356.344 125.42 361.335 116.794 366.314C114.392 367.698 111.944 369.013 109.588 370.472C108.51 371.138 107.682 371 106.655 370.397C97.373 364.924 88.079 359.474 78.768 354.047C66.079 346.655 53.356 339.316 40.673 331.913C29.405 325.332 18.177 318.693 6.93199 312.082C6.06499 311.571 5.22599 310.951 4.29599 310.612C1.02699 309.412 0.301984 307.046 0.404984 303.732C0.632984 296.634 0.415982 289.518 0.518982 282.408C0.552982 279.893 0.781987 277.343 1.28899 274.885C1.78599 272.496 3.39999 270.801 5.59099 269.624C11.525 266.437 17.441 263.209 23.318 259.918C26.729 258.006 30.044 255.933 33.416 253.951C34.717 253.188 35.322 252.217 35.299 250.574C35.202 244.039 35.265 237.503 35.287 230.968C35.402 200.512 35.516 170.057 35.658 139.602C35.681 135.071 37.758 131.182 39.749 127.289C45.066 116.894 54.052 110.536 63.808 104.966C75.191 98.4641 86.498 91.8311 97.846 85.2671C109.08 78.7721 120.325 72.2931 131.565 65.8041C134.4 64.1671 137.236 62.5251 140.054 60.8531C142.182 59.5901 144.225 59.4691 146.45 60.7671C157.267 67.1071 168.119 73.3961 178.982 79.6621C180.87 80.7531 181.715 82.1541 181.658 84.4281C181.355 97.5631 181.161 110.697 180.979 123.831C180.962 125.129 180.528 125.864 179.381 126.525C163.001 135.978 146.661 145.488 130.298 154.976C125.124 157.974 119.92 160.931 114.74 163.924C114.409 164.125 114.107 164.417 113.525 164.871ZM104.39 362.472C104.573 361.8 104.687 361.57 104.687 361.335C104.693 352.45 104.847 343.566 104.619 334.687C104.487 329.622 102.148 325.659 97.481 323.184C93.419 321.03 89.579 318.451 85.517 316.309C79.572 313.174 74.894 308.889 72.144 302.635C69.856 297.432 69.177 291.953 69.217 286.302C69.371 264.737 69.485 243.166 69.519 221.601C69.537 210.442 69.28 199.283 69.274 188.119C69.268 178.545 69.44 168.972 69.548 159.398C69.554 158.962 69.611 158.496 69.776 158.1C71.305 154.43 72.538 150.582 74.489 147.154C77.963 141.043 82.619 135.903 88.684 132.222C91.81 130.327 94.971 128.501 98.132 126.663C108.647 120.558 119.167 114.465 129.694 108.377C143.603 100.337 157.524 92.3141 171.434 84.2731C173.054 83.3371 173.031 82.7921 171.417 81.8441C162.779 76.7621 154.135 71.7021 145.514 66.5851C144.122 65.7581 142.924 65.6321 141.486 66.4991C137.818 68.7101 134.07 70.7891 130.361 72.9371C113.838 82.5161 97.27 92.0091 80.827 101.715C71.807 107.039 62.354 111.633 54.132 118.307C48.655 122.752 44.798 128.208 42.385 134.743C41.695 136.61 41.232 138.683 41.221 140.659C41.124 156.262 41.192 171.86 41.153 187.464C41.13 197.802 41.016 208.145 40.941 218.482C40.793 240.559 40.656 262.635 40.502 284.711C40.479 287.743 38.562 288.898 36.029 287.433C32.537 285.417 29.091 283.315 25.571 281.351C21.56 279.112 17.55 276.866 13.425 274.856C11.08 273.713 9.00898 274.517 7.88498 276.866C7.13698 278.428 6.48098 280.214 6.44098 281.92C6.28198 289.214 6.33298 296.513 6.42998 303.812C6.44098 304.576 7.06899 305.656 7.72499 306.046C17.801 312.031 27.922 317.94 38.049 323.838C57.27 335.026 76.497 346.196 95.724 357.378C98.531 359.026 101.338 360.68 104.39 362.472ZM139.843 190.106C139.621 190.026 139.393 189.945 139.17 189.865C137.704 190.703 136.232 191.53 134.771 192.375C128.387 196.05 122.117 199.955 115.579 203.332C110.906 205.744 107.203 203.918 105.845 199.37C105.121 196.957 105.058 194.293 105.029 191.731C104.932 183.611 104.967 175.484 104.995 167.358C105.007 164.986 105.623 162.769 107.814 161.494C122.453 152.954 137.116 144.449 151.779 135.938C158.973 131.763 166.191 127.616 173.391 123.452C174.389 122.872 175.176 122.304 175.176 120.857C175.182 110.835 175.291 100.808 175.353 90.7861C175.359 90.1431 175.228 89.5001 175.131 88.5691C173.134 89.7351 171.468 90.7291 169.785 91.6931C158.369 98.2691 146.941 104.822 135.536 111.415C123.15 118.577 110.809 125.819 98.4 132.94C92.249 136.472 86.179 140.067 81.809 145.885C77.65 151.421 74.991 157.434 75.059 164.618C75.208 180.55 75.094 196.481 75.082 212.406C75.076 222.434 75.082 232.461 75.059 242.488C75.019 258.925 74.854 275.361 74.945 291.792C74.985 299 77.758 305.036 84.091 308.912C89.248 312.071 94.503 315.069 99.758 318.061C106.964 322.173 110.273 328.484 110.341 336.691C110.41 344.812 110.478 352.933 110.552 361.047C110.558 361.645 110.649 362.248 110.718 363.035C111.362 362.816 111.79 362.742 112.144 362.541C120.639 357.602 129.123 352.634 137.635 347.729C138.691 347.121 139.096 346.483 139.096 345.214C139.067 336.456 139.244 327.698 139.159 318.945C139.085 311.33 136.78 304.967 129.34 301.303C124.89 299.109 120.525 296.599 116.509 293.693C108.795 288.111 105.509 280.042 105.195 270.687C104.989 264.541 105.149 258.379 104.989 252.228C104.853 247.042 107.226 243.246 111.408 240.725C120.04 235.516 128.804 230.531 137.567 225.546C139.21 224.61 139.883 223.49 139.866 221.612C139.803 213.555 139.838 205.492 139.838 197.434C139.843 194.999 139.843 192.553 139.843 190.106Z" fill="#395299"/>
<path d="M74.1859 0.304199C74.8819 0.591399 75.5439 0.775098 76.1259 1.114C84.1939 5.7945 92.2489 10.492 100.311 15.184C103.306 16.925 106.29 18.688 109.308 20.388C111.031 21.358 111.75 22.673 111.18 24.643C111.043 25.12 111.009 25.642 111.014 26.148C111.037 34.969 111.02 43.79 111.123 52.612C111.18 57.281 110.763 61.875 107.665 65.534C105.788 67.75 103.466 69.755 100.99 71.254C92.5229 76.365 83.8849 81.189 75.3449 86.168C74.0319 86.938 72.8799 86.88 71.6299 86.157C65.6339 82.677 59.6259 79.213 53.6299 75.745C48.9399 73.028 44.2849 70.249 39.5439 67.618C37.4379 66.452 36.3369 65.149 36.3199 62.455C36.2399 49.637 35.9089 36.818 35.5959 24.006C35.5609 22.622 36.1659 21.846 37.1929 21.249C45.1459 16.62 53.1049 11.997 61.0809 7.4026C64.7899 5.2662 68.5319 3.1815 72.2689 1.0967C72.8399 0.769403 73.5019 0.579899 74.1859 0.304199ZM44.7979 23.34C45.1919 23.816 45.2779 24 45.4259 24.086C54.1719 29.209 62.9299 34.314 71.6759 39.443C72.8909 40.155 73.9639 40.086 75.1959 39.363C83.6059 34.412 92.0549 29.53 100.477 24.591C101.07 24.241 101.521 23.638 102.04 23.156C101.549 22.708 101.116 22.151 100.551 21.823C92.1349 16.873 83.7199 11.928 75.2479 7.081C74.6029 6.7134 73.3759 6.7766 72.7089 7.1556C66.0219 10.935 59.3919 14.823 52.7509 18.682C50.1499 20.192 47.5599 21.72 44.7979 23.34ZM76.6279 78.381C77.1759 78.254 77.4499 78.26 77.6439 78.14C84.9009 73.528 92.7799 69.99 99.6659 64.695C103.905 61.433 105.663 57.551 105.537 52.342C105.366 45.123 105.463 37.898 105.429 30.673C105.423 30.019 105.309 29.364 105.229 28.52C104.63 28.795 104.293 28.927 103.98 29.106C95.4669 34.004 86.9779 38.938 78.4309 43.773C77.0559 44.554 76.4799 45.381 76.4909 47.012C76.5709 56.77 76.5309 66.533 76.5369 76.296C76.5429 76.916 76.5939 77.531 76.6279 78.381Z" fill="#395299"/>
<path d="M104.39 362.472C101.338 360.68 98.531 359.026 95.718 357.389C76.497 346.207 57.264 335.037 38.043 323.85C27.916 317.952 17.795 312.042 7.71897 306.058C7.06297 305.667 6.43597 304.593 6.42397 303.824C6.32697 296.53 6.28198 289.225 6.43598 281.931C6.46998 280.232 7.13197 278.445 7.87897 276.878C9.00297 274.529 11.08 273.725 13.419 274.868C17.544 276.878 21.555 279.129 25.566 281.363C29.086 283.327 32.532 285.423 36.023 287.445C38.557 288.909 40.474 287.755 40.496 284.723C40.65 262.646 40.793 240.57 40.936 218.494C41.004 208.156 41.118 197.813 41.147 187.476C41.187 171.872 41.118 156.268 41.215 140.67C41.227 138.689 41.689 136.615 42.379 134.755C44.793 128.219 48.649 122.758 54.126 118.318C62.354 111.639 71.807 107.05 80.822 101.727C97.264 92.0208 113.838 82.5278 130.355 72.9478C134.064 70.7998 137.807 68.7158 141.481 66.5098C142.924 65.6428 144.122 65.7688 145.509 66.5958C154.124 71.7128 162.773 76.7728 171.411 81.8558C173.026 82.8088 173.048 83.3488 171.428 84.2848C157.518 92.3248 143.597 100.348 129.688 108.388C119.161 114.476 108.641 120.575 98.126 126.674C94.965 128.506 91.804 130.338 88.678 132.234C82.613 135.915 77.958 141.055 74.483 147.165C72.532 150.594 71.299 154.442 69.77 158.112C69.605 158.508 69.548 158.973 69.542 159.41C69.434 168.983 69.263 178.557 69.268 188.13C69.274 199.289 69.531 210.448 69.514 221.612C69.479 243.177 69.365 264.748 69.211 286.313C69.171 291.97 69.85 297.443 72.138 302.647C74.888 308.895 79.567 313.185 85.511 316.321C89.579 318.463 93.419 321.042 97.476 323.195C102.143 325.67 104.482 329.639 104.613 334.698C104.841 343.577 104.687 352.462 104.681 361.346C104.687 361.57 104.567 361.8 104.39 362.472Z" fill="#FBCC03"/>
<path d="M139.843 190.106C139.843 192.552 139.843 194.999 139.843 197.446C139.843 205.503 139.809 213.566 139.872 221.624C139.889 223.502 139.216 224.622 137.573 225.558C128.809 230.543 120.046 235.528 111.414 240.737C107.237 243.258 104.864 247.054 104.995 252.24C105.155 258.391 104.995 264.547 105.201 270.698C105.514 280.053 108.801 288.122 116.514 293.704C120.531 296.61 124.895 299.12 129.346 301.314C136.78 304.978 139.085 311.341 139.164 318.957C139.25 327.709 139.073 336.467 139.102 345.225C139.107 346.494 138.702 347.132 137.641 347.741C129.129 352.645 120.645 357.619 112.15 362.552C111.796 362.759 111.368 362.828 110.723 363.046C110.655 362.253 110.564 361.656 110.558 361.059C110.478 352.938 110.415 344.823 110.347 336.703C110.278 328.496 106.969 322.184 99.7628 318.072C94.5088 315.074 89.2538 312.076 84.0968 308.924C77.7688 305.053 74.9908 299.011 74.9508 291.804C74.8598 275.367 75.0248 258.93 75.0648 242.5C75.0938 232.472 75.0818 222.445 75.0878 212.418C75.0988 196.486 75.2078 180.555 75.0648 164.63C74.9968 157.445 77.6548 151.438 81.8138 145.896C86.1848 140.078 92.2488 136.483 98.4058 132.951C110.815 125.83 123.155 118.588 135.542 111.426C146.946 104.833 158.374 98.2811 169.791 91.7051C171.474 90.7341 173.145 89.7461 175.136 88.5811C175.233 89.5111 175.365 90.1541 175.359 90.7971C175.296 100.819 175.188 110.846 175.182 120.868C175.182 122.309 174.395 122.884 173.396 123.464C166.191 127.627 158.979 131.774 151.785 135.949C137.122 144.455 122.459 152.96 107.819 161.506C105.628 162.781 105.012 164.997 105.001 167.369C104.967 175.496 104.932 183.616 105.035 191.743C105.064 194.298 105.132 196.969 105.851 199.381C107.209 203.929 110.912 205.756 115.584 203.344C122.123 199.967 128.387 196.061 134.777 192.386C136.238 191.542 137.71 190.715 139.176 189.876C139.393 189.945 139.615 190.026 139.843 190.106Z" fill="white"/>
<path d="M44.7981 23.339C47.5601 21.72 50.1561 20.192 52.7511 18.682C59.3921 14.823 66.0221 10.935 72.7091 7.15559C73.3761 6.77659 74.6031 6.71339 75.2481 7.08099C83.7201 11.928 92.1351 16.873 100.551 21.823C101.11 22.156 101.543 22.708 102.04 23.156C101.521 23.638 101.07 24.241 100.477 24.591C92.0551 29.53 83.6061 34.412 75.1961 39.363C73.9641 40.092 72.8911 40.161 71.6761 39.443C62.9301 34.314 54.1781 29.209 45.4261 24.086C45.2771 24 45.1861 23.81 44.7981 23.339Z" fill="#FBCC03"/>
<path d="M76.6279 78.381C76.5879 77.537 76.5369 76.917 76.5369 76.296C76.5309 66.533 76.5709 56.776 76.4909 47.013C76.4799 45.382 77.0559 44.549 78.4309 43.774C86.9779 38.938 95.4669 33.999 103.98 29.106C104.288 28.928 104.63 28.801 105.229 28.52C105.309 29.364 105.423 30.019 105.429 30.674C105.463 37.898 105.372 45.123 105.537 52.342C105.657 57.545 103.9 61.433 99.6659 64.695C92.7799 69.996 84.9009 73.528 77.6439 78.14C77.4499 78.26 77.1759 78.255 76.6279 78.381Z" fill="white"/>
</g>
</svg>
