<svg width="536" height="536" viewBox="0 0 536 536" fill="none" xmlns="http://www.w3.org/2000/svg">
<path d="M86.3671 416.615C87.2201 417.638 88.2352 418.646 89.4151 419.634C90.59 420.617 91.8706 421.462 93.259 422.17C93.692 423.729 93.896 425.454 93.869 427.342C93.837 429.23 93.495 431.024 92.8465 432.73C92.1976 434.433 91.2217 435.827 89.9165 436.909C88.6973 437.917 87.4954 438.563 86.3081 438.846C85.116 439.133 83.9632 439.173 82.8472 438.964C81.3208 438.642 79.8681 437.971 78.4916 436.948C77.1151 435.926 75.4018 434.175 73.3494 431.698L70.2129 427.912L66.8995 430.656L81.3429 448.088L74.8439 453.476L48.7888 422.033L55.2878 416.645L60.3317 422.731L69.4952 415.14L79.6813 427.44C80.2392 428.102 80.6694 428.556 80.9693 428.807C81.2716 429.063 81.5666 429.235 81.8542 429.328C82.5178 429.576 83.1422 429.456 83.7321 428.964C84.1647 428.603 84.4695 428.168 84.6465 427.657C84.8235 427.145 84.939 426.605 84.9906 426.034C84.0738 425.398 83.1496 424.633 82.218 423.744C81.2815 422.859 80.2909 421.787 79.2487 420.528C76.3064 416.984 74.8512 413.587 74.8832 410.342C74.9176 407.093 76.3089 404.323 79.0619 402.034C81.4289 400.075 83.9582 399.296 86.6522 399.694C89.3413 400.095 92.087 401.587 94.892 404.168C94.415 402.708 93.876 401.176 93.279 399.576C92.6843 397.971 92.0771 396.395 91.4602 394.847L99.267 392.861C100.245 396.44 101.081 399.974 101.774 403.46C102.462 406.94 102.944 410.126 103.219 413.017C105.028 415.435 106.164 417.603 106.621 419.516C107.074 421.431 106.395 423.139 104.586 424.648C103.288 425.722 102 426.125 100.722 425.857C99.439 425.594 98.436 425.032 97.713 424.166C96.116 422.239 95.381 419.592 95.511 416.222C95.132 415.607 94.712 415.02 94.252 414.462C90.472 409.895 87.515 408.491 85.3839 410.254C84.5973 410.91 84.2409 411.743 84.3122 412.751C84.3786 413.754 85.0644 415.042 86.3671 416.615Z" fill="#374F9C"/>
<path d="M51.8129 443.852C50.5937 444.86 49.2024 445.3 47.6342 445.169C46.0685 445.044 44.778 444.373 43.7603 443.154C42.7526 441.935 42.3396 440.551 42.5215 439.005C42.6985 437.456 43.3966 436.178 44.6158 435.17C45.8816 434.12 47.2802 433.658 48.814 433.784C50.3429 433.914 51.6113 434.59 52.6191 435.809C53.6367 437.028 54.0718 438.41 53.9268 439.958C53.7842 441.504 53.0788 442.802 51.8129 443.852Z" fill="#374F9C"/>
<path d="M62.3319 381.327C62.9488 382.507 63.728 383.704 64.6719 384.916C65.6158 386.13 66.6875 387.231 67.887 388.219C67.9853 389.839 67.8182 391.57 67.3856 393.411C66.953 395.247 66.2401 396.928 65.2422 398.455C64.2467 399.981 62.998 401.134 61.4961 401.916C60.0877 402.643 58.7726 403.019 57.5534 403.046C56.3293 403.071 55.1987 402.869 54.1614 402.437C52.7333 401.788 51.4551 400.819 50.3268 399.536C49.1937 398.246 47.886 396.169 46.4038 393.303L44.1424 388.937L40.3276 390.913L54.2794 417.834L46.7873 421.727L24.4585 378.663L31.9506 374.769L35.5885 381.779L46.158 376.313L53.5124 390.491C53.9131 391.265 54.2351 391.806 54.476 392.113C54.7193 392.415 54.9676 392.644 55.2232 392.801C55.8205 393.175 56.4596 393.185 57.1405 392.831C57.6469 392.575 58.0401 392.219 58.3204 391.759C58.5957 391.302 58.8193 390.793 58.9889 390.235C58.2294 389.417 57.4846 388.475 56.757 387.413C56.0295 386.351 55.2896 385.093 54.535 383.638C52.4186 379.548 51.7107 375.927 52.4112 372.773C53.1069 369.615 55.0241 367.223 58.163 365.596C61.1127 364.069 64.2295 363.998 67.5134 365.379C70.7924 366.756 73.7617 370.015 76.4213 375.153C78.2845 378.739 79.4864 382.251 80.0297 385.693C80.5754 389.134 80.6343 392.423 80.2066 395.554C79.7814 398.681 79.0858 401.586 78.1222 404.275L69.411 400.313C70.6572 396.616 71.343 393.077 71.4659 389.694C71.5913 386.312 70.7457 382.876 68.9292 379.38C67.8034 377.198 66.6826 375.809 65.5666 375.212C64.4458 374.609 63.4306 374.543 62.5187 375.015C61.7001 375.443 61.2307 376.146 61.1127 377.129C60.9898 378.112 61.3953 379.513 62.3319 381.327Z" fill="#374F9C"/>
<path d="M33.5343 394.97C32.3545 396.622 31.2017 397.94 30.0734 398.923C28.9476 399.911 27.7727 400.724 26.5535 401.361C23.1909 403.104 19.9119 403.332 16.7116 402.049C13.5063 400.771 10.8565 398.109 8.7574 394.066C6.877 390.433 6.1494 386.967 6.5747 383.663C6.995 380.36 8.2166 377.216 10.242 374.234C12.2674 371.258 14.7722 368.419 17.7538 365.72L14.0471 358.572L21.5391 354.678L24.8919 361.138L59.7861 343.057L64.5153 352.191L29.6211 370.272L32.4528 375.729L24.9607 379.622L21.9521 373.821C18.9115 376.85 16.8369 379.627 15.7284 382.159C14.6222 384.688 14.6321 387.046 15.7579 389.228C16.6034 390.86 17.6899 391.836 19.0123 392.158C20.3298 392.485 21.694 392.286 23.1024 391.558C24.4666 390.851 25.6145 390.027 26.5437 389.091C27.4679 388.152 28.2987 387.173 29.0312 386.151L33.5343 394.97Z" fill="#374F9C"/>
<path d="M13.6077 316.187L24.0199 313.867C23.0637 312.878 22.2599 311.748 21.611 310.474C20.9621 309.204 20.4582 307.768 20.0969 306.168C19.3103 302.628 19.7626 299.477 21.4537 296.71C23.1448 293.944 25.9371 292.128 29.8306 291.263C32.033 290.771 34.5869 290.638 37.4899 290.859C40.3953 291.076 43.426 291.803 46.5846 293.042L43.6743 302.884C41.8799 302.137 40.0708 301.562 38.2469 301.154C36.4255 300.748 34.6435 300.738 32.8983 301.124C31.0498 301.537 29.838 302.216 29.2604 303.159C28.6778 304.098 28.5279 305.19 28.8081 306.433C29.0637 307.581 29.6488 308.604 30.5582 309.501C31.4628 310.401 32.4042 311.16 33.38 311.782L51.9627 307.643L54.2045 317.681L42.4354 320.307C43.544 321.526 44.4486 322.873 45.1491 324.348C45.8521 325.818 46.4125 327.501 46.8304 329.401C47.3417 331.697 47.4498 333.767 47.1548 335.615C46.8599 337.464 46.2503 339.044 45.3261 340.354C44.2126 341.908 42.814 343.191 41.1278 344.199C39.4366 345.202 36.9171 346.077 33.5669 346.824L21.0604 349.606L22.1911 354.699L13.9419 356.538L0 293.976L8.2491 292.138L13.6077 316.187ZM18.8187 339.568L30.7254 336.913C33.0728 336.397 34.6951 335.908 35.5923 335.448C36.4845 334.983 37.2047 334.344 37.7553 333.531C38.419 332.496 38.5394 331.029 38.1191 329.126C37.7725 327.58 37.1359 326.255 36.2117 325.154C35.2826 324.048 34.2846 323.114 33.2227 322.352L15.8494 326.226L18.8187 339.568ZM59.7989 338.929C58.2012 339.29 56.7485 339.064 55.4433 338.25C54.1406 337.439 53.3097 336.235 52.9558 334.642C52.6018 333.044 52.8476 331.614 53.6932 330.355C54.5338 329.092 55.753 328.278 57.3507 327.917C58.9509 327.563 60.4036 327.779 61.7064 328.566C63.0091 329.347 63.8399 330.537 64.1939 332.135C64.5479 333.727 64.3021 335.17 63.4565 336.461C62.6158 337.754 61.3967 338.575 59.7989 338.929Z" fill="#374F9C"/>
<path d="M57.0806 317.917C56.7069 317.163 56.3481 316.324 56.0089 315.4C55.6746 314.476 55.4116 313.586 55.2223 312.736C54.448 309.24 54.3718 306.074 54.9962 303.238C55.6254 300.406 56.7192 297.729 58.2801 295.205C59.8385 292.676 61.6525 290.156 63.7172 287.644L69.8721 293.435C67.8787 295.77 66.3129 297.85 65.1724 299.679C64.0319 301.502 63.2871 303.287 62.9405 305.037C62.5988 306.792 62.6554 308.697 63.1077 310.75C63.2895 311.548 63.5034 312.259 63.7467 312.883C63.995 313.512 64.2285 314.092 64.4448 314.623L57.0806 317.917Z" fill="#374F9C"/>
<path d="M8.7704 292.425L0.334473 292.307L1.13087 234.592L9.5668 234.71L9.4685 241.927L48.7675 242.468L48.62 252.742L24.2855 252.408C24.3248 253.431 24.6346 254.497 25.2097 255.604C25.7874 256.712 26.7829 257.764 28.1987 258.76C29.6145 259.758 31.5981 260.628 34.1471 261.375L31.0992 270.932C29.4228 270.448 27.8693 269.86 26.4387 269.172C25.8169 269.985 25.3081 270.811 24.9148 271.65C24.5166 272.49 24.3052 273.446 24.2855 274.521C24.2658 276.108 24.6739 277.342 25.5047 278.227C26.338 279.107 27.3925 279.555 28.6706 279.574C30.0545 279.589 31.3917 279.22 32.6821 278.473C33.9751 277.726 35.4253 276.507 37.0378 274.815C38.6453 273.124 40.5945 270.809 42.8879 267.864L49.6327 274.639C46.7175 278.185 44.053 281.079 41.6392 283.32C39.2279 285.562 36.9149 287.221 34.6977 288.295C32.483 289.365 30.1725 289.878 27.7661 289.839C24.6985 289.8 22.2675 289.089 20.4706 287.705C18.6689 286.324 17.3981 284.618 16.6558 282.593C15.9159 280.562 15.5595 278.547 15.5841 276.546C15.6234 273.99 15.9774 271.745 16.646 269.811C17.3096 267.872 18.3174 265.942 19.6742 264.02C17.1646 260.861 15.938 257.005 15.997 252.447V252.29L9.321 252.202L8.7704 292.425Z" fill="#374F9C"/>
<path d="M48.0346 256.589C46.9014 253.506 46.3533 250.532 46.3926 247.661C46.4516 243.571 47.5823 240.376 49.7847 238.075C51.9871 235.774 54.7794 234.648 58.1617 234.693C61.4308 234.739 64.1126 235.978 66.2043 238.409C68.2937 240.848 69.3113 244.294 69.2523 248.753C69.1982 252.435 68.628 255.726 67.5415 258.624C66.4526 261.527 64.9311 264.179 62.9794 266.578C61.0326 268.982 58.7614 271.298 56.1657 273.52L51.2005 266.46C54.831 263.334 57.4439 260.448 59.0367 257.808C60.6344 255.173 61.4554 252.346 61.4948 249.333C61.5193 247.587 61.2195 246.226 60.5902 245.243C59.9659 244.264 59.0121 243.77 57.7291 243.758C56.4509 243.738 55.5365 244.171 54.9859 245.056C54.4353 245.946 54.1502 247.005 54.1305 248.231C54.1158 249.254 54.219 250.252 54.4353 251.23C54.6565 252.206 54.9392 253.13 55.2809 254.003L48.0346 256.589Z" fill="#374F9C"/>
<path d="M20.3071 188.628L18.9601 194.773L28.5562 196.868C31.1593 197.438 33.1626 198.114 34.5637 198.893C35.9598 199.675 37.1102 200.761 38.0147 202.157C38.8677 203.554 39.4109 205.144 39.6469 206.926C39.8828 208.703 39.8435 210.915 39.5289 213.563L30.8963 213.494C31.0413 211.424 30.8766 210.028 30.4047 209.305C30.0261 208.644 29.4854 208.133 28.7824 207.772C28.0745 207.405 26.843 207.029 25.0855 206.641L16.7675 204.822L13.4246 220.121L25.6459 222.795C27.5484 223.208 29.1265 223.473 30.385 223.591C31.6435 223.709 32.7693 223.616 33.7574 223.306C34.7406 222.999 35.7288 222.431 36.7169 221.605C37.7075 220.774 38.8652 219.607 40.1876 218.105L48.5548 208.932C50.9735 206.265 53.1587 204.596 55.1128 203.927C57.0645 203.254 59.2669 203.185 61.72 203.721C63.7183 204.153 65.5692 205.016 67.2751 206.307C68.9859 207.599 70.3624 208.858 71.4046 210.082L64.8761 217.299C64.4484 216.625 63.8068 215.971 62.949 215.342C62.0887 214.713 61.2579 214.31 60.4516 214.133C59.4537 213.917 58.5565 213.904 57.7576 214.094C56.9563 214.285 56.0591 214.809 55.0636 215.667C54.0657 216.52 52.7432 217.837 51.0915 219.619L43.8648 227.564C42.3384 229.269 40.8243 230.678 39.3224 231.791C37.823 232.907 36.1147 233.647 34.1999 234.013C33.1724 234.158 31.9852 234.188 30.6406 234.102C29.2986 234.018 27.5779 233.746 25.4788 233.286L11.232 230.169L10.121 235.272L1.87183 233.473L12.0579 186.829L20.3071 188.628Z" fill="#374F9C"/>
<path d="M12.4087 185.932L31.2176 141.215L39.0046 144.489L36.2123 151.146L72.4338 166.386L68.442 175.864L49.6921 167.978L44.9924 179.148L46.831 179.915C48.7187 180.708 49.9084 181.682 50.4 182.835C50.8867 183.99 50.8105 185.322 50.1739 186.836C49.7167 187.918 48.9129 188.938 47.765 189.894C46.6122 190.853 45.2923 191.644 43.8027 192.274C42.3156 192.898 40.8285 193.296 39.3389 193.473C37.8518 193.65 36.5662 193.512 35.4847 193.06C34.2999 192.564 33.3585 191.792 32.6629 190.75C31.9624 189.702 32.0484 188.142 32.9185 186.069L41.9051 164.704L32.2204 160.624L20.1958 189.206L12.4087 185.932Z" fill="#374F9C"/>
<path d="M70.6589 177.731C70.7843 176.89 70.9785 176 71.239 175.056C71.4947 174.113 71.7945 173.238 72.1338 172.431C73.525 169.133 75.2923 166.507 77.4431 164.556C79.5988 162.602 82.0445 161.048 84.7779 159.895C87.5161 158.735 90.451 157.732 93.578 156.887L95.249 165.175C92.2798 165.922 89.8021 166.709 87.816 167.535C85.8299 168.361 84.1879 169.388 82.8901 170.622C81.5923 171.861 80.5353 173.446 79.7241 175.381C79.4021 176.133 79.1588 176.836 78.9966 177.485C78.8393 178.139 78.6942 178.746 78.564 179.304L70.6589 177.731Z" fill="#374F9C"/>
<path d="M67.2904 102.709L99.6869 124.959L93.8669 133.434L79.0594 123.268C78.5285 124.58 77.9017 125.873 77.1815 127.151C76.4588 128.425 75.6673 129.693 74.8021 130.956C72.9733 133.611 71.1667 135.742 69.3846 137.347C67.6025 138.948 66.0195 140.174 64.6357 141.025C64.557 141.59 64.4857 142.192 64.4194 142.834C67.2658 142.487 70.3653 141.946 73.7206 141.211C77.0831 140.479 80.4383 139.616 83.7886 138.626L85.5978 147.779C80.0574 149.072 74.925 150.127 70.2007 150.945C65.4763 151.766 61.6344 152.248 58.6774 152.39C56.7577 152.489 55.2608 152.376 54.1841 152.046C53.1026 151.712 52.203 151.299 51.4803 150.807C50.4332 150.08 49.6368 148.986 49.0911 147.524C48.5405 146.064 48.9018 144.404 50.1726 142.549C51.5098 140.609 53.2894 139.373 55.5115 138.842C55.0199 137.834 54.3783 136.915 53.5844 136.089C52.7929 135.263 51.908 134.516 50.9297 133.847C49.7966 133.068 48.5577 132.431 47.2132 131.94L38.4331 144.721L31.4719 139.943L64.4095 91.9819L71.3707 96.76L67.2904 102.709ZM67.31 126.935C68.3596 125.416 69.2469 123.99 69.9745 122.658C70.7021 121.328 71.324 119.881 71.8426 118.312L61.4697 111.184L52.9453 123.582C53.6532 123.826 54.4349 124.162 55.2853 124.595C56.1383 125.023 57.0699 125.578 58.0777 126.267C59.3509 127.139 60.4054 128.051 61.2436 129C62.0769 129.951 62.7356 130.937 63.2199 131.959C63.9229 131.2 64.6136 130.416 65.2944 129.609C65.9778 128.798 66.6488 127.906 67.31 126.935Z" fill="#374F9C"/>
<path d="M117.513 87.3441C116.495 88.2044 115.5 89.227 114.524 90.4118C113.553 91.5916 112.717 92.8796 112.017 94.276C110.463 94.728 108.743 94.949 106.855 94.935C104.962 94.915 103.163 94.588 101.457 93.951C99.746 93.317 98.348 92.3487 97.259 91.0508C96.236 89.839 95.578 88.6395 95.283 87.4523C94.983 86.2675 94.936 85.1196 95.145 84.0111C95.455 82.4772 96.113 81.0196 97.121 79.6358C98.132 78.247 99.869 76.5165 102.332 74.4444L106.088 71.2686L103.315 67.9847L86.0011 82.5756L80.564 76.1159L111.791 49.8149L117.228 56.2746L111.181 61.3677L118.85 70.4624L106.639 80.7468C105.978 81.3048 105.525 81.7374 105.282 82.0446C105.034 82.347 104.859 82.6419 104.761 82.9295C104.525 83.5981 104.653 84.2249 105.144 84.8075C105.506 85.2401 105.946 85.5424 106.462 85.712C106.973 85.8841 107.514 85.9947 108.084 86.0463C108.721 85.1221 109.478 84.1929 110.355 83.254C111.228 82.3101 112.287 81.3121 113.541 80.2552C117.066 77.2859 120.455 75.8061 123.707 75.8111C126.957 75.8184 129.734 77.1876 132.035 79.9209C134.014 82.2757 134.813 84.7976 134.434 87.4916C134.061 90.1856 132.596 92.9435 130.039 95.76C131.494 95.276 133.018 94.733 134.611 94.128C136.209 93.519 137.78 92.8968 139.321 92.2602L141.366 100.057C137.807 101.06 134.287 101.923 130.806 102.643C127.33 103.366 124.145 103.872 121.249 104.167C118.843 105.991 116.682 107.141 114.77 107.618C112.862 108.09 111.149 107.426 109.628 105.622C108.546 104.339 108.133 103.053 108.389 101.768C108.644 100.477 109.202 99.467 110.06 98.74C111.973 97.127 114.615 96.375 117.985 96.478C118.6 96.1 119.185 95.677 119.735 95.21C124.27 91.3901 125.647 88.4208 123.865 86.3019C123.208 85.5227 122.375 85.1712 121.367 85.2499C120.364 85.3286 119.079 86.0266 117.513 87.3441Z" fill="#374F9C"/>
<path d="M90.0058 53.0033C88.9832 51.7915 88.5309 50.4027 88.6489 48.8345C88.762 47.2687 89.4232 45.9782 90.635 44.9606C91.8493 43.9381 93.228 43.5104 94.774 43.6726C96.323 43.8373 97.606 44.5255 98.629 45.7374C99.685 46.9909 100.157 48.3871 100.044 49.9258C99.934 51.4596 99.273 52.7378 98.058 53.7604C96.846 54.778 95.467 55.2204 93.919 55.0877C92.3655 54.95 91.0627 54.2569 90.0058 53.0033Z" fill="#374F9C"/>
<path d="M152.621 63.0268C151.441 63.6511 150.247 64.4401 149.042 65.3963C147.835 66.3476 146.744 67.4291 145.768 68.6409C144.141 68.754 142.408 68.5991 140.567 68.1788C138.731 67.7609 137.047 67.0579 135.513 66.0747C133.98 65.0915 132.817 63.8527 132.023 62.3582C131.283 60.9571 130.892 59.6445 130.853 58.4253C130.814 57.2012 131.01 56.0656 131.443 55.0234C132.079 53.5879 133.036 52.3048 134.314 51.1692C135.592 50.0287 137.652 48.7063 140.498 47.1971L144.854 44.9062L142.848 41.1011L116.036 55.2692L112.093 47.8067L154.981 25.1338L158.924 32.5964L151.933 36.2932L157.498 46.8136L143.389 54.2762C142.615 54.6842 142.074 55.0111 141.767 55.2594C141.464 55.5027 141.238 55.7559 141.088 56.0165C140.715 56.6064 140.707 57.243 141.069 57.9239C141.329 58.4229 141.69 58.8137 142.15 59.0939C142.615 59.3692 143.126 59.5904 143.684 59.7527C144.49 58.9931 145.419 58.2459 146.476 57.511C147.531 56.7711 148.782 56.0214 150.232 55.2594C154.307 53.1037 157.926 52.3638 161.087 53.0373C164.245 53.7059 166.652 55.6011 168.303 58.7203C169.857 61.665 169.955 64.7843 168.598 68.0805C167.247 71.3718 164.012 74.3681 158.894 77.067C155.328 78.9548 151.827 80.1838 148.393 80.7541C144.957 81.3243 141.673 81.4104 138.542 81.0097C135.408 80.6115 132.492 79.938 129.791 78.9941L133.685 70.2632C137.394 71.4775 140.941 72.1313 144.323 72.2296C147.705 72.323 151.137 71.4504 154.617 69.6143C156.793 68.4615 158.171 67.3234 158.756 66.2025C159.346 65.0817 159.4 64.069 158.924 63.1644C158.491 62.3459 157.783 61.8813 156.8 61.7683C155.817 61.6576 154.423 62.078 152.621 63.0268Z" fill="#374F9C"/>
<path d="M138.724 34.3331C137.073 33.1729 135.75 32.0324 134.752 30.9115C133.757 29.7906 132.933 28.6206 132.284 27.4014C130.515 24.0536 130.259 20.7746 131.517 17.5693C132.776 14.3591 135.418 11.6873 139.442 9.55613C143.06 7.64873 146.521 6.89163 149.825 7.28493C153.128 7.67823 156.282 8.87773 159.283 10.8835C162.287 12.8892 165.148 15.3718 167.867 18.3264L174.985 14.5607L178.928 22.0233L172.488 25.4252L190.854 60.1719L181.769 64.9798L163.403 30.2331L157.966 33.1041L154.023 25.6415L159.795 22.5935C156.747 19.5652 153.954 17.5103 151.418 16.4288C148.876 15.3423 146.519 15.3718 144.348 16.5173C142.716 17.3825 141.743 18.4788 141.428 19.8012C141.114 21.1187 141.33 22.4805 142.077 23.8815C142.792 25.2384 143.621 26.3764 144.565 27.2933C145.509 28.2126 146.497 29.0385 147.524 29.771L138.724 34.3331Z" fill="#374F9C"/>
<path d="M217.359 13.7846L219.758 24.1772C220.734 23.221 221.855 22.4123 223.121 21.7486C224.392 21.0874 225.827 20.5688 227.427 20.1952C230.967 19.384 234.123 19.8093 236.896 21.4733C239.668 23.1399 241.507 25.915 242.411 29.8012C242.915 31.9986 243.07 34.5501 242.874 37.4604C242.682 40.3658 241.979 43.4039 240.76 46.5747L230.898 43.7333C231.638 41.9438 232.201 40.1347 232.589 38.3059C232.982 36.4772 232.975 34.6926 232.569 32.9474C232.142 31.099 231.458 29.8946 230.515 29.3292C229.571 28.7589 228.474 28.6188 227.231 28.9064C226.083 29.1694 225.063 29.7594 224.173 30.6762C223.288 31.5955 222.536 32.5443 221.921 33.5275L226.208 52.0709L216.189 54.3913L213.476 42.6517C212.256 43.7677 210.914 44.6771 209.454 45.3851C207.992 46.093 206.31 46.6682 204.41 47.1057C202.122 47.6366 200.05 47.762 198.196 47.4793C196.341 47.1991 194.76 46.6042 193.457 45.6997C191.889 44.5936 190.596 43.1999 189.574 41.521C188.551 39.8373 187.654 37.3227 186.88 33.9798L183.999 21.493L178.916 22.6729L177.008 14.4434L239.452 0L241.359 8.2295L217.359 13.7846ZM194.018 19.1825L196.761 31.0695C197.304 33.4095 197.808 35.0269 198.275 35.9167C198.747 36.809 199.389 37.5267 200.202 38.07C201.237 38.7263 202.704 38.8369 204.607 38.4043C206.153 38.0454 207.473 37.3965 208.569 36.4575C209.67 35.521 210.597 34.5181 211.352 33.4489L207.34 16.105L194.018 19.1825ZM194.981 60.1627C194.613 58.565 194.829 57.1099 195.63 55.7973C196.436 54.4871 197.631 53.649 199.219 53.2803C200.817 52.9066 202.25 53.1377 203.516 53.9685C204.786 54.8018 205.605 56.0185 205.974 57.6162C206.347 59.209 206.143 60.6617 205.364 61.9718C204.59 63.282 203.403 64.1251 201.805 64.4987C200.217 64.8649 198.776 64.6314 197.479 63.8006C196.186 62.9673 195.355 61.7555 194.981 60.1627Z" fill="#374F9C"/>
<path d="M215.973 57.2762C216.728 56.8952 217.566 56.5314 218.49 56.1848C219.41 55.8432 220.295 55.5752 221.145 55.3786C224.633 54.5724 227.799 54.4691 230.643 55.0738C233.479 55.676 236.169 56.7477 238.705 58.2889C241.242 59.8276 243.771 61.6171 246.296 63.6572L240.554 69.8613C238.206 67.8875 236.114 66.3365 234.281 65.2107C232.445 64.0898 230.65 63.3623 228.893 63.028C227.138 62.6986 225.235 62.7723 223.19 63.2443C222.399 63.4262 221.691 63.6425 221.066 63.8932C220.437 64.1415 219.857 64.3799 219.326 64.6109L215.973 57.2762Z" fill="#374F9C"/>
<path d="M241.076 8.75679L241.125 0.311035L298.85 0.645325L298.801 9.0911L291.584 9.0518L291.358 48.3508L281.073 48.2918L281.211 23.9573C280.188 24.004 279.122 24.3186 278.015 24.9012C276.914 25.4862 275.872 26.4915 274.889 27.9196C273.911 29.3428 273.055 31.3289 272.323 33.8779L262.746 30.9086C263.218 29.2248 263.791 27.6689 264.467 26.2383C263.646 25.6238 262.815 25.1224 261.969 24.734C261.129 24.3407 260.173 24.1416 259.098 24.1343C257.511 24.122 256.282 24.5374 255.411 25.3829C254.539 26.2236 254.099 27.2805 254.094 28.5587C254.079 29.9426 254.453 31.2773 255.215 32.5604C255.974 33.8386 257.206 35.279 258.912 36.8767C260.615 38.4695 262.945 40.404 265.902 42.6776L259.187 49.4716C255.62 46.5884 252.708 43.9509 250.446 41.5568C248.185 39.1577 246.508 36.857 245.422 34.6546C244.333 32.4473 243.795 30.1392 243.81 27.7328C243.829 24.6652 244.52 22.2268 245.884 20.4177C247.253 18.6037 248.947 17.3181 250.967 16.5635C252.993 15.8114 255.003 15.4377 257.004 15.4427C259.561 15.4623 261.807 15.7966 263.749 16.4455C265.696 17.0945 267.635 18.0924 269.57 19.4345C272.701 16.8978 276.546 15.6442 281.103 15.6688H281.26L281.299 8.99279L241.076 8.75679Z" fill="#374F9C"/>
<path d="M277.221 47.7276C280.296 46.5748 283.268 46.0045 286.139 46.0168C290.229 46.0438 293.434 47.1475 295.754 49.3302C298.075 51.5179 299.225 54.3053 299.205 57.6875C299.186 60.9567 297.967 63.6482 295.548 65.7597C293.129 67.8687 289.693 68.9109 285.234 68.8863C281.552 68.8666 278.253 68.321 275.343 67.2542C272.433 66.1849 269.768 64.6831 267.349 62.7511C264.931 60.824 262.6 58.5724 260.359 55.9964L267.379 50.9722C270.533 54.5757 273.435 57.1664 276.09 58.7396C278.74 60.3176 281.572 61.114 284.585 61.1288C286.33 61.1411 287.69 60.8289 288.665 60.1947C289.644 59.5655 290.135 58.6068 290.14 57.3237C290.148 56.0456 289.705 55.1336 288.813 54.5904C287.923 54.0447 286.864 53.7694 285.637 53.7645C284.615 53.7571 283.617 53.8653 282.638 54.089C281.663 54.3176 280.738 54.6101 279.866 54.964L277.221 47.7276Z" fill="#374F9C"/>
<path d="M344.956 19.4572L338.801 18.1593L336.785 27.7751C336.239 30.3782 335.581 32.384 334.809 33.7924C334.042 35.1959 332.963 36.3561 331.574 37.273C330.19 38.1382 328.61 38.6986 326.835 38.9543C325.058 39.205 322.838 39.1779 320.179 38.8756V30.243C322.248 30.3757 323.649 30.2012 324.377 29.7219C325.031 29.336 325.537 28.7879 325.891 28.0799C326.25 27.372 326.614 26.1406 326.982 24.3831L328.733 16.0454L313.404 12.8303L310.838 25.0713C310.437 26.9787 310.182 28.5666 310.071 29.8301C309.966 31.0886 310.071 32.2094 310.386 33.1926C310.705 34.1709 311.283 35.1542 312.116 36.1423C312.954 37.1255 314.132 38.2734 315.646 39.5835L324.878 47.872C327.565 50.2637 329.254 52.4341 329.942 54.3809C330.63 56.3276 330.719 58.53 330.207 60.988C329.78 62.9864 328.929 64.8447 327.651 66.5629C326.378 68.2859 325.134 69.6747 323.915 70.7317L316.649 64.2621C317.317 63.8222 317.961 63.1708 318.586 62.3055C319.215 61.4452 319.613 60.6144 319.785 59.8082C319.994 58.8102 319.997 57.9131 319.795 57.1142C319.599 56.3129 319.068 55.4182 318.202 54.43C317.342 53.4394 316.012 52.1293 314.211 50.4972L306.227 43.3197C304.501 41.8056 303.076 40.3062 301.95 38.8166C300.829 37.3295 300.074 35.6286 299.688 33.7137C299.536 32.6912 299.497 31.5089 299.571 30.1644C299.649 28.8223 299.91 27.0967 300.357 24.9927L303.346 10.7164L298.233 9.6447L299.974 1.38574L346.696 11.1982L344.956 19.4572Z" fill="#374F9C"/>
<path d="M347.603 11.542L392.467 29.9969L389.251 37.8036L382.575 35.0604L367.631 71.4098L358.123 67.4966L365.861 48.6877L354.652 44.0765L353.895 45.9151C353.114 47.8102 352.15 49.0073 351.005 49.5038C349.857 50.0028 348.522 49.9364 347.003 49.3072C345.921 48.8623 344.894 48.0683 343.925 46.9278C342.954 45.7823 342.151 44.4673 341.517 42.9851C340.88 41.5054 340.467 40.0207 340.278 38.5312C340.086 37.0441 340.214 35.756 340.661 34.6671C341.153 33.4824 341.915 32.5336 342.952 31.8257C343.994 31.1177 345.553 31.1939 347.632 32.0518L369.076 40.8712L373.068 31.1472L344.388 19.3487L347.603 11.542Z" fill="#374F9C"/>
<path d="M356.275 69.7241C357.115 69.8421 358.01 70.0289 358.959 70.2846C359.903 70.5353 360.778 70.8253 361.584 71.1596C364.895 72.5164 367.537 74.2616 369.509 76.4001C371.475 78.5435 373.046 80.9745 374.218 83.6956C375.398 86.4215 376.423 89.349 377.296 92.4756L369.027 94.216C368.255 91.2466 367.449 88.7689 366.608 86.7828C365.763 84.8017 364.72 83.1695 363.482 81.8865C362.238 80.6009 360.645 79.5612 358.703 78.7697C357.944 78.455 357.236 78.2191 356.579 78.0618C355.926 77.9094 355.318 77.7693 354.76 77.639L356.275 69.7241Z" fill="#374F9C"/>
<path d="M431.255 65.7504L409.27 98.324L400.746 92.5724L410.794 77.6866C409.477 77.168 408.174 76.551 406.891 75.8382C405.613 75.1303 404.337 74.3462 403.066 73.4883C400.392 71.6841 398.244 69.8996 396.626 68.1298C395.014 66.3551 393.78 64.782 392.929 63.4104C392.359 63.3317 391.754 63.2629 391.12 63.2039C391.479 66.0503 392.04 69.1474 392.802 72.4953C393.561 75.8505 394.448 79.1958 395.466 82.5339L386.332 84.4216C385 78.896 383.906 73.7734 383.048 69.054C382.188 64.3346 381.674 60.5001 381.504 57.5504C381.386 55.6184 381.49 54.1141 381.819 53.0375C382.146 51.956 382.552 51.0563 383.038 50.3337C383.751 49.2718 384.838 48.4631 386.293 47.9051C387.753 47.3496 389.419 47.7036 391.287 48.967C393.239 50.2796 394.485 52.0445 395.024 54.2665C396.031 53.77 396.946 53.1211 397.767 52.3198C398.593 51.5135 399.335 50.6237 399.999 49.6454C400.766 48.5049 401.385 47.2611 401.857 45.9092L389.006 37.2373L393.736 30.2368L441.962 62.791L437.233 69.7914L431.255 65.7504ZM407.029 65.9766C408.555 67.0065 409.988 67.8815 411.325 68.6017C412.662 69.317 414.118 69.9242 415.691 70.4305L422.731 59.9986L410.263 51.5823C410.027 52.2976 409.698 53.0817 409.28 53.9322C408.86 54.7852 408.307 55.7192 407.619 56.7344C406.758 58.0125 405.859 59.0744 404.915 59.92C403.971 60.7655 402.99 61.4341 401.975 61.9257C402.742 62.6214 403.531 63.3071 404.344 63.9806C405.156 64.6492 406.05 65.3154 407.029 65.9766Z" fill="#374F9C"/>
<path d="M447.026 115.859C446.161 114.849 445.131 113.858 443.939 112.89C442.744 111.926 441.446 111.1 440.045 110.412C439.586 108.858 439.357 107.138 439.357 105.25C439.357 103.357 439.667 101.553 440.291 99.842C440.913 98.132 441.867 96.726 443.152 95.624C444.357 94.597 445.551 93.931 446.731 93.629C447.916 93.321 449.066 93.265 450.182 93.461C451.716 93.756 453.176 94.405 454.567 95.408C455.964 96.406 457.706 98.127 459.798 100.57L463.003 104.306L466.268 101.514L451.539 84.3077L457.96 78.8115L484.516 109.832L478.096 115.328L472.954 109.321L463.918 117.058L453.535 104.926C452.97 104.272 452.535 103.822 452.227 103.579C451.925 103.338 451.63 103.166 451.343 103.067C450.667 102.831 450.04 102.964 449.465 103.461C449.032 103.829 448.73 104.272 448.56 104.788C448.395 105.307 448.295 105.85 448.255 106.42C449.179 107.037 450.116 107.784 451.067 108.662C452.016 109.534 453.024 110.589 454.086 111.828C457.087 115.333 458.599 118.71 458.618 121.955C458.638 125.204 457.286 127.994 454.567 130.322C452.227 132.32 449.71 133.139 447.016 132.78C444.327 132.426 441.555 130.981 438.698 128.444C439.202 129.892 439.763 131.413 440.38 133.006C441.002 134.599 441.633 136.165 442.277 137.706L434.5 139.81C433.47 136.251 432.583 132.733 431.836 129.26C431.088 125.792 430.553 122.614 430.233 119.723C428.389 117.336 427.224 115.185 426.733 113.273C426.246 111.366 426.895 109.645 428.679 108.111C429.963 107.017 431.248 106.595 432.534 106.843C433.824 107.086 434.837 107.637 435.572 108.495C437.197 110.395 437.971 113.03 437.892 116.4C438.278 117.009 438.708 117.584 439.18 118.13C443.034 122.638 446.009 123.995 448.108 122.201C448.887 121.532 449.234 120.696 449.15 119.693C449.064 118.691 448.356 117.412 447.026 115.859Z" fill="#374F9C"/>
<path d="M481.144 88.0792C482.344 87.0444 483.725 86.5798 485.293 86.683C486.867 86.7813 488.167 87.4352 489.197 88.6396C490.232 89.8465 490.672 91.223 490.514 92.7691C490.357 94.318 489.679 95.608 488.479 96.643C487.233 97.705 485.839 98.187 484.3 98.088C482.767 97.99 481.481 97.339 480.446 96.132C479.416 94.927 478.964 93.551 479.089 92.0022C479.212 90.4487 479.898 89.1411 481.144 88.0792Z" fill="#374F9C"/>
<path d="M471.619 150.767C470.99 149.592 470.194 148.407 469.23 147.208C468.267 146.008 467.178 144.922 465.966 143.953C465.841 142.334 465.978 140.603 466.379 138.762C466.784 136.919 467.473 135.225 468.444 133.679C469.412 132.14 470.641 130.97 472.131 130.169C473.527 129.417 474.835 129.016 476.054 128.969C477.278 128.925 478.416 129.112 479.465 129.53C480.901 130.154 482.191 131.1 483.339 132.371C484.485 133.635 485.827 135.687 487.361 138.526L489.691 142.852L493.476 140.817L479.092 114.123L486.525 110.121L509.532 152.832L502.099 156.833L498.353 149.872L487.872 155.516L480.301 141.456C479.888 140.689 479.556 140.153 479.308 139.853C479.057 139.551 478.807 139.325 478.551 139.175C477.954 138.806 477.317 138.804 476.644 139.165C476.145 139.433 475.759 139.799 475.483 140.266C475.208 140.731 474.987 141.24 474.825 141.79C475.604 142.597 476.363 143.523 477.106 144.573C477.846 145.627 478.603 146.876 479.377 148.319C481.565 152.375 482.336 155.988 481.688 159.154C481.044 162.32 479.166 164.741 476.054 166.42C473.129 167.993 470.017 168.113 466.713 166.784C463.41 165.459 460.384 162.251 457.638 157.158C455.723 153.599 454.465 150.103 453.863 146.677C453.265 143.248 453.155 139.964 453.528 136.825C453.902 133.691 454.551 130.773 455.475 128.065L464.245 131.88C463.058 135.601 462.429 139.15 462.358 142.528C462.284 145.91 463.183 149.334 465.052 152.802C466.217 154.97 467.365 156.347 468.493 156.932C469.626 157.514 470.646 157.564 471.551 157.079C472.362 156.639 472.819 155.924 472.917 154.936C473.02 153.953 472.588 152.561 471.619 150.767Z" fill="#374F9C"/>
<path d="M500.203 136.653C501.349 134.996 502.477 133.661 503.585 132.651C504.699 131.643 505.861 130.81 507.076 130.154C510.411 128.359 513.688 128.077 516.908 129.308C520.133 130.542 522.827 133.16 524.99 137.164C526.929 140.77 527.713 144.228 527.34 147.537C526.971 150.84 525.799 154.001 523.82 157.015C521.839 160.024 519.386 162.904 516.456 165.657L520.27 172.746L512.837 176.748L509.386 170.337L474.787 188.979L469.9 179.924L504.5 161.282L501.589 155.874L509.022 151.873L512.12 157.624C515.113 154.545 517.146 151.73 518.216 149.179C519.282 146.63 519.233 144.272 518.068 142.109C517.188 140.492 516.087 139.531 514.764 139.229C513.44 138.929 512.08 139.155 510.684 139.907C509.332 140.635 508.202 141.478 507.292 142.434C506.38 143.385 505.564 144.371 504.844 145.393L500.203 136.653Z" fill="#374F9C"/>
<path d="M521.382 215.104L511.009 217.582C511.977 218.565 512.798 219.686 513.467 220.944C514.14 222.203 514.671 223.628 515.06 225.221C515.905 228.753 515.502 231.912 513.85 234.699C512.203 237.492 509.438 239.352 505.552 240.284C503.362 240.815 500.813 240.992 497.902 240.815C494.992 240.643 491.949 239.964 488.778 238.78L491.531 228.889C493.34 229.609 495.154 230.157 496.978 230.53C498.807 230.909 500.592 230.889 502.337 230.471C504.178 230.031 505.377 229.336 505.935 228.387C506.498 227.443 506.633 226.347 506.338 225.103C506.063 223.963 505.463 222.95 504.539 222.065C503.615 221.18 502.661 220.433 501.678 219.823L483.164 224.258L480.765 214.258L492.485 211.446C491.357 210.239 490.433 208.91 489.712 207.454C488.997 205.999 488.41 204.323 487.952 202.43C487.407 200.142 487.267 198.07 487.53 196.216C487.798 194.361 488.38 192.775 489.28 191.458C490.366 189.877 491.748 188.569 493.419 187.535C495.095 186.505 497.603 185.593 500.941 184.791L513.408 181.812L512.189 176.739L520.398 174.763L535.333 237.088L527.124 239.065L521.382 215.104ZM515.807 191.821L503.939 194.663C501.599 195.218 499.982 195.735 499.092 196.207C498.207 196.678 497.492 197.327 496.949 198.153C496.305 199.196 496.211 200.663 496.664 202.558C497.037 204.097 497.696 205.412 498.64 206.501C499.584 207.587 500.592 208.507 501.668 209.254L518.983 205.105L515.807 191.821ZM474.827 193.109C476.419 192.728 477.874 192.932 479.192 193.719C480.509 194.511 481.36 195.7 481.748 197.288C482.127 198.881 481.906 200.311 481.08 201.585C480.254 202.863 479.044 203.691 477.452 204.072C475.859 204.451 474.406 204.262 473.096 203.502C471.786 202.74 470.94 201.565 470.559 199.972C470.173 198.384 470.39 196.939 471.208 195.636C472.029 194.331 473.234 193.488 474.827 193.109Z" fill="#374F9C"/>
<path d="M477.892 214.064C478.28 214.819 478.649 215.655 479.003 216.572C479.352 217.491 479.627 218.371 479.829 219.216C480.662 222.697 480.787 225.863 480.202 228.714C479.62 231.566 478.57 234.262 477.056 236.806C475.542 239.355 473.772 241.902 471.747 244.446L465.493 238.753C467.44 236.386 468.971 234.282 470.085 232.441C471.201 230.597 471.919 228.8 472.238 227.043C472.553 225.28 472.464 223.375 471.973 221.33C471.783 220.539 471.56 219.831 471.304 219.207C471.044 218.585 470.8 218.012 470.577 217.486L477.892 214.064Z" fill="#374F9C"/>
<path d="M526.591 238.785L535.037 238.766L535.164 296.49L526.719 296.51L526.699 289.293L487.4 289.381L487.38 279.097L511.715 279.048C511.661 278.025 511.336 276.963 510.741 275.862C510.151 274.761 509.139 273.724 507.703 272.755C506.268 271.784 504.272 270.946 501.715 270.238L504.616 260.632C506.3 261.089 507.861 261.65 509.296 262.314C509.906 261.493 510.4 260.662 510.781 259.816C511.167 258.971 511.361 258.01 511.361 256.935C511.361 255.347 510.933 254.118 510.083 253.248C509.237 252.383 508.175 251.953 506.897 251.96C505.513 251.96 504.183 252.344 502.905 253.111C501.627 253.883 500.196 255.129 498.618 256.847C497.038 258.563 495.123 260.91 492.876 263.887L486.023 257.221C488.88 253.627 491.495 250.692 493.869 248.411C496.249 246.135 498.535 244.444 500.732 243.338C502.935 242.229 505.238 241.671 507.644 241.666C510.712 241.659 513.155 242.33 514.979 243.682C516.8 245.039 518.096 246.725 518.863 248.745C519.635 250.763 520.025 252.771 520.033 254.772C520.033 257.329 519.713 259.58 519.079 261.527C518.45 263.474 517.469 265.42 516.139 267.367C518.7 270.479 519.988 274.314 520.003 278.871V279.028L526.679 279.008L526.591 238.785Z" fill="#374F9C"/>
<path d="M487.908 275.244C489.088 278.307 489.68 281.271 489.688 284.142C489.7 288.232 488.621 291.447 486.453 293.787C484.285 296.12 481.508 297.29 478.125 297.297C474.856 297.302 472.157 296.108 470.033 293.709C467.905 291.31 466.833 287.883 466.818 283.424C466.813 279.742 467.33 276.441 468.372 273.523C469.414 270.601 470.894 267.924 472.806 265.49C474.714 263.059 476.95 260.712 479.512 258.451L484.585 265.431C481.006 268.612 478.44 271.535 476.886 274.202C475.333 276.864 474.561 279.703 474.566 282.716C474.573 284.462 474.898 285.818 475.539 286.787C476.176 287.75 477.137 288.232 478.42 288.232C479.698 288.232 480.608 287.785 481.144 286.885C481.682 285.988 481.948 284.926 481.94 283.7C481.94 282.677 481.822 281.682 481.586 280.711C481.35 279.735 481.055 278.811 480.701 277.938L487.908 275.244Z" fill="#374F9C"/>
<path d="M516.723 342.75L517.971 336.585L508.346 334.648C505.735 334.117 503.725 333.473 502.309 332.721C500.898 331.966 499.733 330.895 498.809 329.506C497.936 328.129 497.366 326.551 497.098 324.776C496.827 322.999 496.832 320.785 497.108 318.13L505.74 318.051C505.627 320.121 505.814 321.517 506.301 322.24C506.687 322.894 507.235 323.4 507.943 323.754C508.656 324.108 509.892 324.462 511.649 324.816L519.997 326.497L523.094 311.149L510.833 308.681C508.926 308.293 507.343 308.052 506.084 307.954C504.826 307.855 503.705 307.966 502.722 308.288C501.744 308.615 500.768 309.202 499.792 310.048C498.814 310.894 497.678 312.073 496.38 313.588L488.151 322.899C485.786 325.597 483.633 327.303 481.691 328.011C479.744 328.719 477.542 328.822 475.084 328.326C473.078 327.918 471.21 327.082 469.479 325.819C467.749 324.56 466.353 323.324 465.291 322.112L471.701 314.797C472.141 315.465 472.798 316.107 473.668 316.724C474.533 317.339 475.369 317.729 476.175 317.894C477.178 318.096 478.078 318.096 478.869 317.894C479.663 317.69 480.555 317.149 481.543 316.272C482.527 315.399 483.829 314.059 485.447 312.25L492.555 304.198C494.055 302.46 495.544 301.025 497.019 299.891C498.499 298.756 500.197 297.994 502.112 297.601C503.135 297.436 504.317 297.387 505.662 297.453C507.004 297.517 508.729 297.763 510.833 298.19L525.129 301.071L526.162 295.949L534.44 297.62L525.001 344.421L516.723 342.75Z" fill="#374F9C"/>
<path d="M524.675 345.329L506.584 390.34L498.748 387.194L501.442 380.498L464.974 365.839L468.809 356.292L487.686 363.882L492.209 352.634L490.351 351.887C488.456 351.125 487.254 350.171 486.743 349.026C486.236 347.885 486.29 346.553 486.9 345.034C487.337 343.945 488.124 342.913 489.26 341.937C490.393 340.959 491.698 340.142 493.173 339.489C494.652 338.84 496.137 338.417 497.627 338.22C499.114 338.024 500.402 338.144 501.491 338.584C502.683 339.061 503.637 339.816 504.352 340.845C505.065 341.873 505.003 343.434 504.165 345.526L495.523 367.028L505.276 370.951L516.839 342.183L524.675 345.329Z" fill="#374F9C"/>
<path d="M466.556 354.469C466.443 355.31 466.264 356.205 466.015 357.153C465.772 358.097 465.487 358.977 465.16 359.788C463.828 363.107 462.102 365.757 459.978 367.743C457.855 369.729 455.436 371.322 452.722 372.521C450.009 373.726 447.093 374.778 443.972 375.677L442.172 367.418C445.129 366.619 447.597 365.791 449.576 364.931C451.55 364.073 453.175 363.018 454.453 361.765C455.726 360.514 456.753 358.913 457.54 356.967C457.842 356.207 458.069 355.499 458.218 354.843C458.371 354.189 458.504 353.58 458.622 353.014L466.556 354.469Z" fill="#374F9C"/>
<path d="M471.122 429.418L438.372 407.689L444.055 399.115L459.019 409.045C459.53 407.721 460.137 406.413 460.838 405.122C461.541 403.837 462.313 402.556 463.158 401.278C464.943 398.589 466.71 396.433 468.468 394.809C470.223 393.181 471.786 391.933 473.158 391.063C473.236 390.497 473.3 389.895 473.354 389.253C470.508 389.647 467.416 390.237 464.073 391.023C460.725 391.81 457.382 392.724 454.044 393.766L452.097 384.632C457.611 383.261 462.723 382.128 467.435 381.23C472.147 380.331 475.979 379.788 478.929 379.598C480.856 379.473 482.361 379.569 483.442 379.883C484.524 380.198 485.423 380.594 486.146 381.073C487.213 381.781 488.034 382.858 488.604 384.308C489.174 385.763 488.835 387.43 487.591 389.312C486.293 391.271 484.536 392.53 482.321 393.088C482.825 394.096 483.481 395.008 484.288 395.821C485.099 396.632 485.998 397.367 486.982 398.024C488.127 398.783 489.376 399.395 490.728 399.862L499.301 386.943L506.331 391.613L474.161 440.095L467.131 435.425L471.122 429.418ZM470.7 405.181C469.682 406.715 468.822 408.153 468.114 409.498C467.411 410.84 466.811 412.302 466.315 413.883L476.805 420.844L485.123 408.308C484.415 408.077 483.629 407.753 482.764 407.335C481.903 406.922 480.964 406.374 479.942 405.693C478.656 404.84 477.587 403.947 476.737 403.018C475.891 402.087 475.215 401.116 474.711 400.108C474.023 400.875 473.344 401.664 472.676 402.478C472.012 403.296 471.353 404.198 470.7 405.181Z" fill="#374F9C"/>
<path d="M421.151 445.587C422.154 444.714 423.135 443.679 424.091 442.48C425.042 441.28 425.858 439.975 426.539 438.567C428.085 438.095 429.803 437.849 431.691 437.829C433.584 437.814 435.39 438.114 437.109 438.724C438.824 439.333 440.238 440.277 441.346 441.556C442.388 442.748 443.067 443.935 443.382 445.115C443.696 446.3 443.76 447.45 443.578 448.566C443.288 450.105 442.649 451.574 441.661 452.971C440.678 454.372 438.972 456.129 436.548 458.241L432.842 461.475L435.653 464.71L452.732 449.844L458.277 456.225L427.473 483.027L421.928 476.646L427.886 471.455L420.079 462.488L432.134 452.007C432.783 451.442 433.225 451.004 433.461 450.69C433.702 450.38 433.874 450.082 433.972 449.795C434.201 449.119 434.063 448.492 433.559 447.917C433.191 447.489 432.748 447.194 432.232 447.032C431.713 446.875 431.165 446.776 430.59 446.737C429.98 447.666 429.243 448.608 428.378 449.559C427.512 450.515 426.465 451.53 425.231 452.607C421.751 455.635 418.388 457.171 415.144 457.218C411.894 457.262 409.094 455.94 406.747 453.246C404.729 450.926 403.891 448.413 404.23 445.714C404.564 443.02 405.988 440.238 408.497 437.367C407.049 437.878 405.533 438.449 403.945 439.078C402.359 439.712 400.804 440.358 399.275 441.015L397.092 433.247C400.646 432.19 404.156 431.274 407.622 430.494C411.083 429.72 414.259 429.162 417.149 428.823C419.524 426.955 421.662 425.768 423.57 425.264C425.477 424.765 427.203 425.404 428.751 427.181C429.853 428.452 430.285 429.73 430.049 431.015C429.813 432.306 429.268 433.321 428.417 434.063C426.529 435.708 423.902 436.507 420.532 436.462C419.929 436.856 419.357 437.288 418.811 437.76C414.335 441.654 413.005 444.643 414.819 446.727C415.488 447.499 416.328 447.838 417.336 447.74C418.339 447.647 419.612 446.929 421.151 445.587Z" fill="#374F9C"/>
<path d="M449.202 479.479C450.244 480.679 450.719 482.06 450.628 483.629C450.542 485.194 449.9 486.5 448.701 487.542C447.506 488.577 446.135 489.026 444.581 488.889C443.033 488.751 441.74 488.083 440.697 486.883C439.621 485.644 439.127 484.253 439.213 482.714C439.304 481.18 439.945 479.895 441.14 478.86C442.339 477.818 443.711 477.348 445.26 477.454C446.813 477.565 448.126 478.241 449.202 479.479Z" fill="#374F9C"/>
<path d="M386.448 470.462C387.616 469.818 388.796 469.012 389.988 468.044C391.183 467.073 392.254 465.972 393.203 464.74C394.83 464.607 396.566 464.735 398.414 465.124C400.258 465.51 401.951 466.181 403.497 467.139C405.043 468.103 406.226 469.324 407.047 470.807C407.806 472.195 408.212 473.501 408.266 474.72C408.325 475.944 408.15 477.079 407.745 478.122C407.135 479.569 406.196 480.87 404.933 482.025C403.674 483.185 401.634 484.542 398.807 486.096L394.501 488.465L396.566 492.231L423.142 477.63L427.212 485.034L384.689 508.385L380.618 500.981L387.55 497.176L381.827 486.754L395.828 479.066C396.59 478.645 397.121 478.311 397.421 478.063C397.723 477.812 397.947 477.556 398.09 477.296C398.451 476.686 398.449 476.047 398.08 475.379C397.805 474.88 397.436 474.496 396.969 474.228C396.504 473.958 395.995 473.746 395.445 473.589C394.646 474.376 393.722 475.143 392.672 475.89C391.625 476.637 390.381 477.406 388.946 478.2C384.91 480.415 381.304 481.211 378.131 480.59C374.96 479.973 372.524 478.117 370.825 475.025C369.228 472.107 369.08 468.99 370.383 465.674C371.681 462.363 374.866 459.315 379.94 456.53C383.479 454.584 386.965 453.298 390.391 452.676C393.813 452.052 397.094 451.912 400.233 452.253C403.367 452.6 406.29 453.227 409.003 454.131L405.267 462.931C401.531 461.771 397.977 461.166 394.599 461.122C391.217 461.083 387.8 462.012 384.344 463.914C382.196 465.094 380.832 466.249 380.254 467.385C379.679 468.518 379.635 469.533 380.126 470.433C380.574 471.239 381.292 471.691 382.28 471.79C383.263 471.888 384.654 471.446 386.448 470.462Z" fill="#374F9C"/>
<path d="M400.784 498.927C402.455 500.06 403.797 501.178 404.815 502.279C405.83 503.386 406.668 504.543 407.332 505.75C409.161 509.073 409.471 512.35 408.266 515.582C407.059 518.812 404.461 521.523 400.469 523.713C396.883 525.685 393.434 526.498 390.126 526.152C386.815 525.81 383.642 524.66 380.608 522.701C377.58 520.747 374.682 518.316 371.917 515.405L364.857 519.279L360.787 511.876L367.168 508.365L348.251 473.924L357.267 468.978L376.184 503.42L381.572 500.46L385.642 507.864L379.92 511.01C383.012 513.98 385.839 515.985 388.395 517.028C390.952 518.075 393.307 518.011 395.465 516.831C397.077 515.939 398.031 514.83 398.326 513.508C398.621 512.183 398.385 510.826 397.618 509.437C396.876 508.085 396.025 506.959 395.062 506.055C394.103 505.155 393.11 504.349 392.083 503.636L400.784 498.927Z" fill="#374F9C"/>
<path d="M322.504 520.725L319.928 510.372C318.964 511.355 317.858 512.186 316.605 512.869C315.346 513.55 313.921 514.088 312.328 514.482C308.803 515.359 305.639 514.985 302.84 513.361C300.035 511.734 298.15 508.985 297.186 505.112C296.643 502.921 296.446 500.373 296.596 497.462C296.749 494.552 297.403 491.504 298.563 488.318L308.474 490.993C307.766 492.807 307.232 494.631 306.871 496.459C306.512 498.293 306.546 500.08 306.979 501.818C307.439 503.652 308.144 504.846 309.093 505.397C310.044 505.952 311.143 506.078 312.387 505.77C313.522 505.488 314.528 504.881 315.405 503.951C316.285 503.02 317.023 502.056 317.617 501.061L313.036 482.586L323.015 480.118L325.916 491.819C327.115 490.678 328.443 489.739 329.898 489.007C331.353 488.272 333.024 487.672 334.912 487.207C337.193 486.637 339.263 486.475 341.116 486.726C342.972 486.981 344.565 487.551 345.895 488.436C347.475 489.518 348.79 490.889 349.837 492.556C350.887 494.22 351.823 496.717 352.649 500.048L355.737 512.486L360.8 511.227L362.826 519.427L300.618 534.864L298.592 526.664L322.504 520.725ZM345.747 514.963L342.807 503.125C342.225 500.79 341.694 499.183 341.215 498.298C340.738 497.413 340.089 496.705 339.268 496.174C338.221 495.538 336.748 495.452 334.853 495.919C333.314 496.304 332.002 496.973 330.92 497.924C329.839 498.88 328.929 499.901 328.187 500.982L332.484 518.257L345.747 514.963ZM344.125 474.013C344.518 475.598 344.326 477.053 343.545 478.378C342.766 479.7 341.586 480.561 340.005 480.954C338.412 481.347 336.974 481.136 335.689 480.325C334.406 479.511 333.565 478.312 333.172 476.726C332.779 475.133 332.96 473.678 333.713 472.361C334.467 471.038 335.64 470.178 337.233 469.785C338.813 469.392 340.258 469.603 341.568 470.414C342.881 471.22 343.732 472.42 344.125 474.013Z" fill="#374F9C"/>
<path d="M323.175 477.226C322.433 477.62 321.605 477.998 320.688 478.357C319.776 478.711 318.898 478.996 318.053 479.213C314.577 480.073 311.411 480.223 308.555 479.665C305.704 479.109 303 478.082 300.444 476.587C297.882 475.088 295.321 473.333 292.765 471.327L298.398 465.035C300.778 466.969 302.897 468.486 304.75 469.587C306.598 470.683 308.403 471.381 310.167 471.681C311.937 471.984 313.837 471.883 315.87 471.376C316.669 471.18 317.377 470.951 317.994 470.688C318.616 470.42 319.188 470.172 319.714 469.941L323.175 477.226Z" fill="#374F9C"/>
<path d="M298.857 526.131L298.936 534.577L241.212 535.167L241.133 526.721L248.35 526.643L247.947 487.344L258.231 487.245L258.477 511.58C259.499 511.513 260.559 511.179 261.653 510.577C262.749 509.98 263.776 508.959 264.74 507.519C265.698 506.076 266.519 504.073 267.208 501.512L276.833 504.333C276.396 506.017 275.848 507.581 275.191 509.023C276.017 509.626 276.858 510.115 277.708 510.488C278.554 510.867 279.515 511.054 280.589 511.049C282.177 511.029 283.399 510.592 284.257 509.741C285.117 508.888 285.54 507.824 285.525 506.546C285.513 505.162 285.117 503.834 284.335 502.564C283.556 501.29 282.3 499.87 280.57 498.297C278.839 496.728 276.479 494.836 273.49 492.614L280.098 485.711C283.711 488.536 286.665 491.129 288.966 493.489C291.267 495.848 292.978 498.122 294.099 500.312C295.219 502.5 295.795 504.798 295.819 507.204C295.854 510.272 295.2 512.72 293.863 514.549C292.525 516.383 290.851 517.695 288.838 518.482C286.828 519.268 284.822 519.674 282.821 519.701C280.265 519.726 278.011 519.428 276.057 518.806C274.105 518.189 272.151 517.226 270.197 515.916C267.104 518.497 263.28 519.814 258.723 519.868H258.565L258.634 526.544L298.857 526.131Z" fill="#374F9C"/>
<path d="M262.096 487.745C259.033 488.95 256.068 489.567 253.197 489.594C249.107 489.638 245.885 488.586 243.532 486.438C241.188 484.289 239.993 481.522 239.954 478.139C239.922 474.87 241.099 472.159 243.483 470.008C245.868 467.86 249.289 466.761 253.748 466.714C257.43 466.682 260.734 467.176 263.659 468.199C266.589 469.217 269.275 470.672 271.721 472.564C274.172 474.452 276.539 476.669 278.82 479.211L271.878 484.343C268.673 480.791 265.728 478.247 263.049 476.714C260.375 475.18 257.528 474.43 254.515 474.462C252.77 474.477 251.418 474.806 250.454 475.455C249.491 476.104 249.014 477.072 249.029 478.356C249.041 479.634 249.496 480.538 250.395 481.069C251.292 481.6 252.354 481.861 253.581 481.846C254.603 481.834 255.599 481.706 256.57 481.463C257.546 481.222 258.467 480.919 259.333 480.558L262.096 487.745Z" fill="#374F9C"/>
<path d="M194.811 517.09L200.995 518.289L202.864 508.644C203.37 506.033 203.994 504.018 204.741 502.597C205.484 501.181 206.541 500.006 207.917 499.077C209.294 498.192 210.867 497.605 212.637 497.317C214.406 497.035 216.626 497.022 219.293 497.278L219.431 505.911C217.354 505.812 215.957 506.011 215.242 506.51C214.593 506.896 214.097 507.447 213.748 508.162C213.401 508.875 213.057 510.114 212.715 511.879L211.093 520.236L226.47 523.215L228.85 510.935C229.219 509.027 229.447 507.439 229.538 506.176C229.624 504.918 229.499 503.799 229.164 502.823C228.83 501.845 228.238 500.869 227.385 499.893C226.534 498.922 225.345 497.794 223.816 496.511L214.446 488.36C211.72 486.015 209.997 483.874 209.274 481.94C208.554 480 208.428 477.798 208.9 475.333C209.294 473.327 210.115 471.456 211.358 469.719C212.605 467.976 213.831 466.567 215.036 465.491L222.41 471.852C221.756 472.299 221.119 472.958 220.502 473.828C219.888 474.701 219.504 475.539 219.352 476.345C219.155 477.348 219.163 478.25 219.372 479.049C219.583 479.843 220.126 480.728 221.004 481.704C221.884 482.682 223.236 483.97 225.064 485.568L233.166 492.608C234.916 494.095 236.366 495.572 237.512 497.042C238.66 498.517 239.439 500.208 239.852 502.115C240.024 503.138 240.083 504.32 240.029 505.665C239.977 507.007 239.749 508.735 239.341 510.846L236.568 525.162L241.691 526.155L240.088 534.453L193.208 525.388L194.811 517.09Z" fill="#374F9C"/>
<path d="M192.309 525.061L147.159 507.324L150.247 499.458L156.962 502.103L171.327 465.528L180.893 469.284L173.46 488.22L184.748 492.655L185.475 490.796C186.222 488.889 187.166 487.675 188.307 487.158C189.447 486.64 190.78 486.679 192.299 487.276C193.395 487.709 194.437 488.488 195.425 489.617C196.409 490.75 197.232 492.05 197.893 493.52C198.55 494.995 198.985 496.472 199.201 497.954C199.417 499.441 199.309 500.732 198.876 501.828C198.412 503.02 197.665 503.976 196.635 504.699C195.607 505.419 194.046 505.37 191.955 504.552L170.373 496.076L166.529 505.859L195.396 517.196L192.309 525.061Z" fill="#374F9C"/>
<path d="M182.704 467.02C181.864 466.914 180.969 466.744 180.02 466.508C179.069 466.272 178.187 465.992 177.375 465.673C174.045 464.367 171.378 462.664 169.372 460.56C167.366 458.451 165.754 456.042 164.535 453.333C163.316 450.627 162.244 447.719 161.32 444.612L169.569 442.734C170.387 445.691 171.233 448.152 172.105 450.118C172.976 452.085 174.045 453.705 175.311 454.975C176.574 456.241 178.182 457.256 180.128 458.023C180.895 458.326 181.606 458.549 182.262 458.692C182.923 458.837 183.535 458.965 184.101 459.075L182.704 467.02Z" fill="#374F9C"/>
<path d="M107.797 472.187L129.26 439.27L137.873 444.884L128.061 459.927C129.393 460.426 130.703 461.018 131.994 461.706C133.279 462.395 134.565 463.159 135.848 463.997C138.549 465.762 140.722 467.512 142.367 469.257C144.014 471 145.275 472.556 146.152 473.928C146.722 473.987 147.329 474.041 147.971 474.095C147.558 471.256 146.946 468.169 146.132 464.833C145.314 461.49 144.37 458.155 143.301 454.824L152.415 452.808C153.831 458.314 155.008 463.417 155.945 468.117C156.876 472.822 157.449 476.646 157.665 479.591C157.81 481.518 157.729 483.022 157.42 484.104C157.112 485.19 156.722 486.102 156.25 486.837C155.549 487.904 154.477 488.73 153.035 489.315C151.587 489.898 149.915 489.573 148.02 488.342C146.054 487.056 144.783 485.308 144.205 483.101C143.202 483.605 142.298 484.266 141.492 485.087C140.68 485.906 139.953 486.808 139.309 487.791C138.557 488.944 137.952 490.2 137.5 491.557L150.488 500.022L145.877 507.101L97.1389 475.324L101.75 468.245L107.797 472.187ZM132.013 471.578C130.475 470.575 129.029 469.722 127.677 469.022C126.321 468.326 124.856 467.738 123.283 467.262L116.41 477.802L129.005 486.021C129.228 485.313 129.546 484.527 129.959 483.662C130.367 482.796 130.907 481.848 131.581 480.82C132.421 479.527 133.301 478.453 134.226 477.595C135.15 476.742 136.118 476.061 137.126 475.55C136.354 474.862 135.558 474.188 134.737 473.534C133.911 472.878 133.004 472.227 132.013 471.578Z" fill="#374F9C"/>
</svg>
